<mxfile host="app.diagrams.net" agent="Mozilla/5.0 (Windows NT 10.0; Win64; x64) AppleWebKit/537.36 (KHTML, like Gecko) Chrome/134.0.0.0 Safari/537.36 Edg/134.0.0.0" version="26.2.2">
  <diagram name="第 1 页" id="BUG2RSC8-JRc0cA5Aq0y">
    <mxGraphModel dx="1534" dy="462" grid="1" gridSize="10" guides="1" tooltips="1" connect="1" arrows="1" fold="1" page="1" pageScale="1" pageWidth="827" pageHeight="1169" math="0" shadow="0">
      <root>
        <mxCell id="0" />
        <mxCell id="1" parent="0" />
        <mxCell id="g7Lv0-j5SWcme3CbAV27-1" value="" style="shape=image;verticalLabelPosition=bottom;labelBackgroundColor=default;verticalAlign=top;aspect=fixed;imageAspect=0;image=data:image/png,iVBORw0KGgoAAAANSUhEUgAABA8AAAIPCAYAAAFrl8d3AAAAAXNSR0IArs4c6QAAAARnQU1BAACxjwv8YQUAAAAJcEhZcwAAFxEAABcRAcom8z8AAN0zSURBVHhe7N0HnBRF2sfx14AYQOUOMSAqKCgqKGKOoGJWFEXFhDmHO5U7FdOZ9UznmbOIiqIoKnomwJwTGQVBJQsioARTvfOvqZrt6Z2ZnbTbO9u/7+dTO52md6anu/rpp6u7/y/h1kQxlNiX/zMAKwIsVgRYDX5F2GuvvVxX0rnnnuv3iba/RYsWqf7gcFH38OHD04Y1VInvGK8VQd/Xl0WLFtkV4ffffzdNmzY1K6ywgll22WVT08m7775rhg4darsbssT3bfhrO2rGigCLFQEWKwKsvFYEP01wWnVTKrtMmDDB/Zol1AjFvg/1xzfffOO6IloRVl99dfu6xhpr5JxPJa5sZ5xxhv1e2dSn7xT5iuDfG1xgU6dOta8aN2rUqFR3plIf+c+lFSEs+JnVvfHGG9vXddZZx74Gx9elSFeEJUuWuC5jfv31V1vkzz//tK++34/z/RLur0/851JyKvwZfb9eNf63336z/aJh4enrSuQ1AuoHVgRYBa8Imkblyy+/dENYERqComuE4LSsCJWPXQMsVgRYrAiwWBFgsSLAYkWAVfCKcNZZZ9nX4LSsCJWvoBXh73//e6oEsSJUPnYNsFgRYNW4IqiNf01YESpfjSvCBhts4LqyY0WofDWuCPfcc4/ryo4VofLVuCLk8yOzIlS+goPFvn372hKcVt3z5s0zc+bMoVRooUaAVeOKsOKKK7qu7FgRKl+NK0KwpXE2DWlF+PlnfR/XEyMFxwiZZHpfbS7Mddd1HbVgqaVcR8SmT3cdtSDTb1NrK4LccovrKJNETGOuucaYuXOT/QsXVn2pJ59MvpaikK//4Yeuo8yCn2HSJGO22cb1lMmee7qOkFpdEcppiy1cRxb6CMcck3xdfnljzj47faHW5IgjXEeeNO9evVxPiY46ypg113Q9Wej/HXywMTvsYMxqqyX7VU44wU2Qh733dh0ZFLwiXHjhhbYElXNF0Kz22CP5evjhbmCZPPywMWuvbcxXX7kBTvfurqMIP/yQ+f2tWhmz2WbG7LRTshbr0CH5nYLlr381pn//ZHc5PPhg9nnV9D+KrhGC06pbx6IzZszIWGbPnmFGjZqe6p85c4bZYIPF9sONGfND4r1V42bPruquzTJ58kz7/1UyjS+maF4LFkzLOK6uy+mn/2latPjNfcc/M04TLHW6a5gyxZgff3Q9qFcqJkZA7WJFgMWKAIsVARYrAqyCV4RmzZqZc845J3GMX3WQz4pQ+QpaEQYPHpx67dChg+0WVoTKx64BFisCLFYEWKwIsFgRYLEiwCp4Rbjtttvsa3BaVoTKV9CKsI1rN7XtttvaVzRMNa4IpRg5cqT5y1/+4vqSdCPur0LNhdYMtdlq3LhxtRpHN7CeHmrdGVyjZe7cuWa55ZZzfUkrr7yy6dGjh+tLCs/7jz/+cF25/aCmSSHLq41cwFFqgxai7/zUU0+5vqTwZ3j77bdNy5YtXV/SmDFjzOjRo11fUvA+ztncd9991eavz/DOO++4vuoS09feiiATJ050XYUJ/+j+ju1Bffr0cV1VtPIFjRgxIuMPWC6ZPlemm2yHh6mFUFimeRUrnxUmqKwrQj53VdEW+v3337u+pPB0xX6mE0880T7XMehf//qX6dSpk+tL2mSTTVxX0uzZs81bb73l+goT3mXqs7/33nuuL0n94f8ZrgUz2XTTTU3Hjh1dX1K7du1cV9IVV1xhevfu7fqSrlGDyRA9PkAbRTaJz12+FeGRRx5xXdntvvvurqtK+DPomspiP1evUDPjQw891Bx//PGuL7MFCxYU/f/C1lprrYzzmqI2ewEL1S6/BkcffbQ58sgjXV/SRx995LqqhL+z3Hnnna4r6bDDDjPjx493fdUlPnP5VoTwvAYOHJh6DkMul19+uesqzauvvuq6quji3auuusr1ZZfPNJN00UGZ/Pvf/3Zd2d19993m0ksvdX1Jzz77rOuqcvHFF7uu4pV1RQjLtPWj9uk3PVgXRITo8cbZlHVFKDRAaQgayneu1RoBlcOuCBQK1QHMTz/9xIoAVgQ4sVgRlFsI7w/HjRuX6r722mvtdEoqSXA6yefuMZUuditC2EorrWTPATRq1Mj260fXCSg/rV533nln061bN9vfULFrgMWKAIsVARYrAqyCVoRwsOUDMErlFo8aIYfggmqIgs3zIlkRtIB90zGdKq2vC7yQz6Vp/fRbb711vf1OQfViRfBmztRdzpILsVWrVqnuzXSPuogFP2ch1JjEf49w8SZMmGBfw62W6lLkK4L4hpzB12DjTt/tz/UHx9WV4A9XiGzf6ffff7evGqZWW1F8p6B6sSJUgmJXhErBipAnVoSAnj17ui5jdtxxxwa/cIJYEUJefPFFs9dee9kF44OcOGBFgMWKAIsVARYrAixWBFisCLBYEUJ0+CgNfcGEsSIEhO93EO5vyFgRYLEiwIr9iqA2AtxBjRXBaugLIR+sCAmsCKwI5sEHHzSrrrqq64svaoSExYsXuy5jvv76a/Pkk0/aNoVBWlB6EmxDLQ39+wXvPZlxRdACaOhbQz5iXyNst912tsRd7FcEXRoeh3sCBOk3D+wNrdivCMXScps71/XUgn/8w3XUkbpeEWrz3511lm7d63qcWlsR5IILXEcZhRfQbrvp/sOupxbV1YqgO+Xqhq53353sr41/e++9riOgVlcEKccX0TyaNHE9WYwbZ4zuOq9pVRTWZPrfuW4O7xd+JplWhEzzL0XXrq4jg/btk/9PDck32ijZraLlEno6QU7/+Y/rCCl4RdDho3fhhRe6rtwKWWArrGDMrbdWfVHdJfaww9zIMvDzDTv5ZNeRRa4aIdOoDz+s+l96NMNxx1X1B8uBB+oKLvemMtA8TzrJ9YSEHvWQpqgaQXcJDy+YkxL/Xc8cyFY0eefOC1P9Y8cmh6n88su0tGnrquy0U/L/d+/+e8bxwaLvm2l4sGy4oUkck0/POK6uy48/Trff7dRTlQNJPg8iV5k2bZr7JWtp1xCkD/TYY66nwtRVjBCVWo8RGgpWBFisCLBYEWCxIsBiRQgILgy1U+jSpYvra/hYEQIGDx7supKP6TvzzDNdX8PHigCLFQEWKwIsVgRYrAiwWBFgsSJk0dAXTFicvm+NK8I222zjupK4JrJhKuuuoUmTJqZx48auL6lHjx6uK0kNIsJWX31106xZM9eXFN4aFy1aZNZbbz3XlzRmzJhq93285JJLXFeV8LOb9RnD89dnqOnqLn2GTLXEL7/84rqSVlCTq5Dw+zJ9hnXXXTetupbHH3/cdSWtssoqqQeReUsttVS1J903bdrUdSXNmjXLdWVW1hVh9uzZ1X6Y0bnaShVo1KhRriu7fKYp1sKFC83cUDNtLcBiBa8mk5EjR7quKuENRMsz001Pf/zxR9dVnLKuCNKyZUvXlbTBBhu4riSt9U+pQV/A0KFDM25FNdl///3NMccc4/qSNOz55593fUlKjQdl2qp//vlns88++7i+zPS++fPnu76k008/3XVVWWeddVxXlfD/VH+mzxEWnmb77bc3ffr0cX1Jxx13nHnooYdcX1J4l673vffee66vurKvCDXRlwh/OT1484QTTnB9SVfk2V49vFLlS7fJDzrssMPMqaee6vqyu+uuu1xXdplqpUwrgnalxXjggQdcV9LAgQNdV3ZXX311zhWvzleEcvrb3/5mzjnnHNeXdPnll7uu2nGgmiAHDBkyJGNcEta3b1/XVZp//etf1b5zvvMOxxFBZV0R9GjdXGtdfbHmmmtWC8q0j1166aVdX2aZap9TTjmlIr5zTSq6RkD5sCLAsitCQ6jaAJSOCgFAChUCgBQqhAZAdz3Tb6jiz4hl+k0vvvhi15WkM2iarkWLFmn32Qu77LLLUvl41pWGjQqhAdDzOF999VXb7X9Lveqsr65M84LjdLNNta1YaaWVbIWgZ1Zro2/evLltx6Azscsvv7y9s96yyy6bSsfrvX4+ou53333X7LbbbuaTTz4x3bp1c2NQiagQGoCddtoptaGOHz/eDlO3PxfmL1X14/UqvrGVNvyDDz642vApU6bYCkFRhx8XfPXdb731ltliiy1spaQmD6hcVAgAUqgQAKRQIQBIKblCePbZZ11X0qeffmo+++wze3ypUur1FgDqTskVgt/wZdCgQfZV/Uow6VbPmeZdyv9D/cBvWNl01uibDE94iOSQoT6vTMV8tjhuHFF/52L+v65mKueV2JUs9hWC/mf4/66xxhr2Iejix+l16tSp9vXYY4+1r7oy2t8vQf26QYiGqfu8886zr36cH56pvyGpre+kxlOnnXaaueGGG9wQY8444wxzt3vOUnDZ+le/jDMt+wsuuCDVvfHGG5tx48ZlnHb33XdP9cdBrCsEPYaqbdu2Zu+99zb/+9//3NBkhfDmm2/aWyb4z6RXVQj+icfq15Xt66+/flq/7544cWLaezUu2B98bUhq8zuF560K4dJLLzUHHXRQ1mWr1/CyD/5O6g5WCHH5nbLhkAFlxW9Y2agQUFb8hpWNCgFlxW9Y2Wq9QtBpRj8fveo2f9nmq+FqZ682CuGn0lIqo+g3zDScUhlFTQKIEFA2/IaVjUMGlBW/YWWjQkBZ8RtWNioElBW/YWWjQkBZ8RtWNioElBW/YWWrkwrhyCOPTHuVYLfHylT5+A0rW61XCP4mn0cffbR91TyzzVfD9dS+efPm2WeDUiqv6DfMNJxSGUUPAOaQAWXDb1jZyCGgrPgNKxsVAsqK37CylVQhNGrUyD7Yw/P5gmKxMlU+fsPKVnKEMHLkSNdVOlamysdvWNlKqhC6d+/uupKmT5/uuorDylT5+A0rW63lEPx7dRhx44032m69Pv/88/Y+dXpEWBgrU+XjN6xsJVcImuaf//ynvb9d0O23327LY489Zl8fffRR+7raaquZXXbZxRx++OFuyiqsTJWP37Cy1VqEUAxWpsrHb1jZSq4QdJdaPV7c38m2FKxM9de77xrz8ceuJwd+w8pWcoXQrFmzVClVPv/vssuMWWUV14M68fXXxrRpk6wUakKFUH+df77ryKEiDxnef9+YjTd2PRVg4UJj9DwXfb1gOeAAN0E9ludPktJQK4Tbb0//7VSuu86NrAA775z8zFoXc6noHEK7dsZMmuR66hl9lXPOcT15mDixakVTue02NyIiG25ozPjxrqcANf2GI0Ykv1/z5m5APabP+dZbrieHX39NTrvVVm5Awr/+5TpyWGst11GLdDLPneTLS4NIKtb2x/z9d9eRweuvJ/+/L3VF/6tbN2POOsuY7bc3pnHj9M/x178a85e/JLunTXNvysOppxrTp4/rKUIhv+GMGcnPd/rpbkAR9H49ljHXd9SGN3Wq68lADyLXfHwp1axZxqy+uuvJIfi/9OCwvfeu+gy9elUtn803dxMVQBX644+7ngLUeoWgdgjB5/FpntnmW+r/K/Ttmv6ii4wZONCYE080Zu21k8N8WXfd5Ean7sRyqnjKv+i7XHWVG+D47/vSS25ACUr9DTt3rvo8KvfdZ0zPnlX9/fu7CZ3HHnMdOUQdbZWLXz9nz3YDAg491Bg9jlTjS1FrFYIaHvnGR+FXqc2GSUstlVwwSy+dPKR47TVj9EhGDdMe1dOeAcb84x+uowzK9RuiMOVa7A3ikAH1B79hZaNCQFnxG1Y2KgSUFb9hZaNCQFnxG1Y2KgSUFb9hZaNCQFnxG1a2Wq8Q9HhpT7dib9++fdaVRsNV9IF0JyZK5RX9fpmGUyqjfPnll0QIKB9+w8rGIQPKit+wslEhoKz4DSsbFQLKit+wslEhoKz4DSsbFQLKit+wstVJhaCZyZ133mlfJdjtsTJVPn7DylbrFcKQIUPsSrLvvvvafnVnm2/fvn1N165dKRRKhOWXX35xW2SVSA4ZANRP9bpCOOmkk7JGGbLsssva8QsWLHBDqmvbtq197dixo/latxXO4rvvvrPz0jyz+fHHH82WW25pNs9xr6unnnrKdRmz//77u67qVlxxRdeV3Yknnmh+//138+eff5r//ve/bmh1r7zyipk1a5bZY4893JDq1l13Xfv9cn12PdBX/+urr74ya5V4I0D9r//85z+uL7slS5bY11y/sx/XpEkT+5qNPv9KK62Uc176/WoS/D+5Hlu41FJLmY8++sj1ZXbIIYfYzzNgwAA3pLprrrnGvmqduPDCC213Jssss4xdpkvrjkBZ6OFIsuuuu5p387l9dki9jxCWW24515Vdjx49XFdufuXLZdy4ca4ru3zmUxNt6PPnzzdNmzZ1Q3K7T/cYq0FNG4zkqhSDxhdz59UQfb/+4XuhZaGVvSYzdPPBPIwZM8Z1ZTdaN2gsk1w7ES/fxxdcccUVriu7fD97pkOCmtTbCsE/YDbXZ/PjctXS77zzjp1u++23z7mS77bbbna6XP/vrrvusnvhrYK33S2S/s9ee+2V8/+pclpzzTVNu3btzB133OGGVrfpppva+eRa6fz/efvtt+1rJtrDas8iyy+/vH0t1j/+8Q/7/TbO8z76uZaDIi2NzxUBicZrulzz0jh9t7V148ISaWdV0/9r3ry5Hd+hQwc3pLpvv/3WtGnTxrRq1crm17K5++677euOO+5oXzPR81T9evBWPreSDqm3FcLOO+9szjzzTNeXmf8xcn1+bVBXX3213SPXtHfUwmjUqJHrq07/Rz9eOZx//vl2fj5czOT00083Z7mbQ96W4w6iL7zwgp1Xrg1G43XGJ1fFsnjxYjtdrmWQL81HDjvsMPuajabzJRuNy7dikVzzmqk7lCaU44FDcvzxx+f8fz179rTPN33yySfdkOq0fnp6fmo2J598sv0Nt912WzekOq0Le++9d87PlEu9rRC0kFRyfTY/zVXh2wtnkE+YVR+XQ7nojtgq119/vRtS3aJFi1LTrZ7P/cVz0Dz02/gngmeTz+9ciHzms/LKK7uuyuJ/m1x5EOWw/HQNLofQkDdQVOF3rj/qdYUAoG6lKgSdXqFQKPEuSrzbCoFCoVAS5Yn/U4MbALCVAhUCAKFCAJBChQAghQoBQAoVAoAUKoQGwP6IiaI287LRRhuZ9957z3Z7F198seuqovcEX7Px761pOlQ+uy5RIVQ2v6FuvfXW9mIoPTVL7diD9wawP3Si6CKvuXPnpvqD42666aZUv3/1ZbXVVksNv/nmm223XsVP06JFC9uPymV/SyqEyuY3VFH3dtttZz755JNqw0UVgr/Bhh9W7ldULv2GVAgVzm+Iuix2p512shWCv0fEKqusYp/j56dRheAvbw5vyOV6ReXSb0iFUOHsj5goXbp0sf26GccHH3yQGi69e/e23aoQ/DD/qgpC3bqOXtS9ww47pE2n+0r4fv0fdfv/F5wOlU2/IRUCAIsKAUAKFQKAFCoEAClUCABSqBAApFAhAEgpqUJ47rnn7Ay8bt262X49sUeCDWIA1H8lRwjBDf7111+vVgFkqhDsP6VQKJGWTOy4YisEPWRUM9hggw1S/+CHH35Idet12LBhtjvo73//u+tCJfr8889dFyqV30bDNLzOcwhUCJWNCqHyUSHkQQvD5z8KkW3hNlRRVwj77befefTRR11f/uL2O+US6wrBf/nwQlD/kUceaV8LfcR7eF5xUlsVwmWXXWaf86gnR/t7M0jwd/rmm2/c0PzoHhGTJk1yffCyrb8aHosIQV9UT6YJ8gvlt99+M3/5y1/sQ0AXLFhgh+tR5loudgG56fS6zz77mI4dO6a6/XDdkESPGd98883tVYPPPPNM6r2HHHKIna6hqM0IwS+zoGC/unv16mUfaqruzp07p4br0euzZ8+2j+tXRaBhuvxbl4T7afyrfxT/L7/8Yl9Vll12WTs+DvyyCLPLoqFXCJ999pnp1KmTGThwoBuS5BfKr7/+av7617+mVQjiLwv2/f5Vwt3hflUIehT4448/bo4++mg3pmGozQpBUUIwOpDwsg1WCKKKWd0qr732Wtr0W2yxhfniiy9st4a3bdvWTJw4MdWvCqFJkyZm3rx5ZXtEfCUILqMgDY/1IcOoUaPsqyqCcIWgexOuvfba9pn74qfX/QZ8tx+uFVE3JrnjjjvMnnvuSYVQpL59+5rrrrvO9SX5Za3XF198sVqFcNppp6X9Hnpcev/+/e3ZL91OTr+F+On1qu+gVyqEdBre4CsERQCiQ4M///zTdouG+3Hiu8PD9D4v1/R69d1//PGHfZ9edVOShqQ2KwQtKy2zoOByFT9NcFh4mkzd/lW/S67xcRDrCgHlVZsVAuoGFQLKhgqh8lEhoGyoECofFQLKhgqh8lEhoGyoECpfrVUIfsY6xWZn5oro9d5777XdQVQIlY0KofL5bTTMbr/lqBB0zletwuwMA/8s0z9WSz81QJkxYwalAosuc9dVrZnGUSqjZNouxW6/5agQWrdubZvoPvDAA+bbb7+1wwYNGpTxH1900UWuC5WICKHy1VqFUAwOGSobFULlo0JA2VAhVD4qBJQNFULlo0JA2VAhVD4qBJQNFULlo0JA2VAhVD4qBJQNFULlo0JA2VAhVD4qBJQNFULlo0JA2VAhVD4qBJQNFULlo0JA2VAhVL5aqxD0AA3Pd4dfw6gQKhsVQuWrlQpBT9HxMz7qqKPslY7hf5TpH3O1Y2WjQqh8tVIhiJ9xjx49zMiRI/OqELbffntz55132qfsUCqvDB8+3MydOzfjOEpllFqpEPQEHIX/2rinTZtmHn74YTvcHxJkOzTgkKGyESFUvlqpEIpFhVDZqBAqHxUCyoYKofJRIaBsqBAqHxUCyoYKofJRIaBsqBAqX8kVQtOmTW2ZOXOmG1I8KoTKRoVQ+UqqEHQfd0/nMLfddlvXVxwqhMpGhVD5So4Q9Dz+li1bmq233toNKR4VQmWjQqh8JVUImkiNkLLNpFBUCJWNCqHylVQhyNChQ+3Ep556qhtSPCqEykaFUPlKrhCCzj//fNdVHCqEykaFUPlKrhDshIny4IMPuiHFo0KobFQIla/kCiGTSZMmpWa84YYbmhtvvNH261XWX399s/baa9vuICqEykaFUPlKqhDuv/9+15XeLX7Gffv2td163W+//ewwyfSPNWyttdYyc+bMoVRg8Zc/ZxpHqYySabsUDa+xQli8eLFZYYUVqs1Elzxr2HPPPWduv/122924cWNzzDHH2PGKGrThhxEhVDYihMpXUoVgJ3KlXbt2bmjxqBAqGxVC5SupQig3KoTKRoVQ+UqqELbbbjuz2Wab2dfjjjvODS0eFUJlo0KofCVVCKNGjTKDBg2yrxMmTHBDi0eFUH9lWU/SUCFUvpIqBE20ZMkSW3799Vc3tHhUCPWT1hFfcqFCqHwlVwjNmjWzpWvXrm5o8fKpEPR5f//d9aBOaJlnWU/SUCFUvpIrhHKqqUI44ojkirnssm5AhSnz4qoTq69uTA2rQUpDrxAmTarM31D0uVX++MMNyKKkCqHc8okQdt218n6UM86o+kF8WWMNY776yk1QT91xhzFXXeV68tCQK4R11kn//TI0tK3X9JkbN3Y9OVRcheBl+dz1yhZbJD+nX4ybbJJ89d5+Ozl+vfXcgHpk/nxjVl7Z9eSpIVYIK6xgzB57uJ6Exx5zHQlaXfX7zZ7tBtRThWwrFVshSCFftC6dckrys/38sxuQh8svT77Hl5q8847rqCXFLNt8KoR8v1/U9t3XmKWXdj01uPnm5HfyX3+vvZKvudRV3Vnosq7oCmHqVGNatXI9EZo1K7k3vfba5A8wZowbUQS9f6edjLnvPmPat0/2+9KmjTHduxvTunWy/5NP3JvKTPMuRj4VQu/eVd+nPlGFLIoA9NmKuUXoCy9UfTeVnj2Tv9eOOyZ/O4XswfEq3boZc9ddbgZlpvkXqqIrBHn8cWMC10yVXU1nU08/verH1UZcF55/Pvn//vvfZDi72mpVn8GXrbaq6i5EodMHFXrIoIeAl/L/Ntqo6v2LFydfM6npf/Tpk5xG5bXX3MAS5POdDjooWYHI9OnG3HCDMcstl3yvrgJ45BFjPvssv3llUvz7Mr+x5ArhwgsvTL0Gu4OvYcVUCHLBBcacdZbrKTMtn5VWMubss3XZdrJfZd11kz+ip7CxvtHn9EnYXr3cwBw0XSmKzSEcf3zyf7/1lhuQkC3K+tvfktMGy5NPGqPHhyp5u/32xjRrVn2aTEWV5plnGjN5sjFNmhjzww/un9QD33yjiwCTn7NpU2PGjnUjavDmm8n3FKtWKoTRo0enZqyLnp5P7NLC/yjTPy7lcfCq5Q8/3PXkYeDA5IL79NPkhr3zzsn+YPHDTj7ZvanCKWTVyhUMh3W2Q8fK+p6lKjWp+Oijyc+xyirJVzVtueKKqv4DDnATFkiHYJXq6aeTr7femlwGmfalH3+cfFXEpEOQUtRKhSDBGX/55ZfV/lGmf9yhQwdzySWX2Nu7F1Puv/+XRE3/h1m0aIaZOHF6tfG//DLDXHnlzMT/Ti5clYcf/sUsWTLVzJs3LbGhpE+vMnt29flUcvnpp+mJler3VHjqy6xZmacvpLz++uuJvewPGccVUubOnW4/0803L0r8llPNnDkN6zcopUycOMu0aJH8zQ47bK655prkskr+hqUvp1qpEMYm4ptDDjnEXH755ebggw9O7IGTsbW6g69hxR4yhPkF9N57xnz9tTG33JLsX3NNk9gg3EQJdZXpjYtSIwQUp3lzY156yfWUqFYqhGKVq0L4xz+SGfoPPjDm2WfdQNQ6KoTK1yArBESDCqHyUSGgbKgQKh8VAsqGCqHyUSGgbKgQKh8VAsqGCqHyUSGgbKgQKh8VAsqGCqHyUSGgbKgQKh8VAsqGCqHyUSGgbKgQKh8VAsqGCqHy1UqF4B/26tmZJco555xj+9dcc02zka7VDKFCqGxUCJWvVioE8TNed911bffRRx9tH/nmZfrHGrbGGmuYkSNHUiqwDBw40IwfPz7jOEpllEzbpWh40RWCf878e7r+OEHdf/3rX815551n+7fcckv7cJcwIoTKRoRQ+WqlQigWFUJlo0KofFQIKBsqhMpHhYCyoUKofFQIKBsqhMpHhYCyoUKofFQIKBsqhMpHhYCyoUKofFQIKBsqhMpHhYCyoUKofFQIKBsqhMpHhYCyoUKofFQIKBsqhMpXaxXCnXfe6bqqusOvYVQIlY0KofLVSoXw6aefpmZ8/vnnJ2cW+keZ/vGFmZ51jYrxzTffuC5UqkzbpdhtuJQIwc/YzsiVoHC/dO3alUKhRFh22203tzWms9twsRXCF198YW+GcsYZZ9h+f2OUbbbZxr5uu+229hVAZSipQgDQsNTLCuHKK680F198sevLbfnllze///6766tOX3DYsGFmnXXWcUOq0+3cVl99dVv+/PNPN7S65ZZbLrnAEiWbFVdc0d5OTtNmo+U9evRoO83MmTPd0Oo0/pdffjErrbSSG5KZ/qe8+uqr9jUbfU9/d6tMNB/d8Ur3yiyVvp+SyrNmzXJDqtOtvC655BLTuHFjNyQz/cZLlizJudw1bvDgwfY7ZtOxY8fU7zd58mQ3tDqN12+4xRZbuCHV6RZyY8aMMV26dMm6zixatMjsv//+ZuWVV3ZDMltllVXMzz//bK677jo3pLqzzjrLnHbaafb7aZ3IRp/9ySefNFtvvbUbUhi7fOpbhaAPJTfffLN9zeaPP/6wr376TN599137uvTSS9vXTFq1amUrjOnTp5sFCxa4odU1adLEjB071vVlpuMzue222+xrJg888IC5/PLLc35uueOOO+w0WhGy2Xvvve2rVroXXnjBdmfy4Ycf2lveZbqlnafvJyussIJ9LVXPnj1zfkdt6Brvf8dsFi9ebEuueTVq1MiO13fMZt68ebbyyTUf+eSTT+xrropKNw+ePXt22v1Dw/r3729fVZkdeuihtjuTiy66yPz66685k+2qBHTzYn0/bfDZPPvss/Z12WWXta+F0rKpdxVCrr1K0NSpU82oUaNcX9347rvv7MqZiz5TPntZvwFmoz2o5JvVz7Xn8Gr67KIVuFRfffWVfc21gYoiCe1t69L333+fMxKUfNYrVWQHHnig68tsxIgR9jvm8uWXX9pXRQn5yBURezV9v2zqZYXg9e3b13Xl1rRpU9eV3bhx41xXdlqINe2tpKYoIR/z58+3ewWFzDWpqeLwXnnlFdeVncLcmviNuRT6foq2FAXU5IYbbnBdueXz2bWx50PLvhwUeeVTgZ5wwgmuK7t81mP56aefXFd2+SyrTOplhaAPpdD2kEMOcUMy22WXXcyuu+7q+jJ74okn7PxatmzphlSnwwlN8+abb5qFCxe6odX5PbamLUXwWPHss892XdXpUEF5DX9YkMnuu+9uz+poo9LKmU2LFi1yhrdiV4ZEWWqppdyQ4vlKM9ey0rjmzZu7vuyU99C066+/vhtSncZvuOGGOXMkhx9+uB0/YMAAN6R4WpZvvfWWueqqq9yQ6nTIoMOBPfbYw1x99dVuaHVaz3XYetRRR7kh1Wld0HesqdLXeE2nUgz73vpYIRTyhXJNu8MOO9jxufZUzz33nJ1G52a1Z8tG0+jHzVW55EN7sX333deWCRMmuKHVbbDBBvZ/5vp/H3zwgc0fdOrUyQwZMsQNzS7XslpmmWXsBpprGeRLidC99trL7Ljjjm5Idf6z6NAvFy1zTZvrs3fu3NmO17TZvPPOO3b8pEmTciYV83HTTTfZ30+yRQhKGHfo0MH85S9/MUceeaQbWp0qA332XBXeqaee6rqSOahstByURM+13HOxy7m+HjK8/vrrrqt4+oIKy3OtTMcee6x9zTWNHHbYYbbSyCfMz4f2WDXRXkZ7olx0DKrPlo9c02mcSo8ePdyQ0nz88ceuqzT6XRQp9evXzw2pTp9bkVdNv6EfX2prS1UoOhsmv/32m33NplevXq4rM78e5Psb5lof/G+Y77zCtHzqZYQgd911l33Nxn74RMl1BsE/bq5t27ZuSHU6dvOn9nKdZRB/6qoUCu99ZHDuuefa10x0lkHLINdZBu2FvVxnGe655x57GjDX4YA/lq9pGeSjTZs2ZtCgQa4vM//75bM8dXiYa7p85uPXAU1XaoTg/5d+n2wRgg5NnnnmGdutMy7Z9OnTx87PVzCZ6Ilo+v1UclWMenxiKexyrI8RwvDhw2s87eiP6XUKL5ea5uPlk2jKN9FZDpdddpndy9Z0MZhWpHJ+rnKcZZCaNtBcOY+wa6+91nWVrqYzH/n44YcfXFf2rL/yKPoNa+Lb3OTb9qYmuU5L1qReVghKwKjUlH3209WUBFNjm3zkk72taSWvr7QsVWqKEFTKcUjkf5tcy+uaa66x09x4441uSHblXO7lOItS19TozP8+uSIEP40aVhWjXlYIJ598suvKzWeLK3UjrUv+XHeuZeXH1ZTky4e/eCbX/1NlgMLdd999rqs6v7w32WQT+1oovb/eJhXzkWuFQ7T4bSpPxVcI+bTaQjT4bSpPxVcIAMqHCgFAiq0QdHpEV/pRKJR4F1sh6A+VAoVCoVAoFBVdhZ4KEEgjAAAAUTtdAgQAAJCGAAEAAFRDgAAAAKohQAAAANUQIAAVon379nZjzfXEiXzpqSNuw7f9uvG+unM9YbRQwfkDqDwECEA9oHvoaxvUgxt022w9BtptmPYhooXw7yuEHuel9+T7MNUwPVG20P8JoH4jQADqAR8g6BbrQW7jtN16hqS69Yh6/2g/PbjHP+tRfLcfpx2+7mfph+mZkWeddVZqmH8okQ8Q/Pt89+23327H6wFG6vdPpQ4+vv/MM89MPRNVj5nzz0bx85CJEyfabgUSmn/37t1t/6abbmrHv/vuu6npg/9/6623tuMB1D0CBKAeKCRA+Oijj2y/3ymrBB9mFXyP+GCgUaNGbogxixYtssPCAYJ/CJUeaKV+/0DubAGCf7CXzyAoYPDUrxLu9oLjfYCw88472/6hQ4fa/m7dutl+AHWPAAGoB3yAoOdXvfzyy6kMgcro0aPtNMEMQrt27cytt95qp9WjdDU8+DwuFY375ZdfCgoQ/Pv0kD91+2dZ+3GNGzc2jz/+eKrfBwi+f8iQIannUfthMm7cONu9xhpr2PnrCavq1wPyhQABqH8IEAAAQDUECAAAoBoCBAAAUA0BAgAAqIYAAQAAVEOAAAAAqiFAAAAA1UQeIOyxxx72A3jPP/+8/0C27LLLLvb6bt9/3XXX2ek+/PDD1LBbbrnFDgMAAOVRLzII+t9hEyZMMJtvvrntDo733ZmG5dK/f39z2GGHUSgUCoUS26JbmevmafmolwHCm2++aTbeeGPXlxz/4IMPpu7n7odppz9mzJhq789E01x00UWuD0BdmzRpUl7bKoDao23wm2++cX25xaYNgr7f3//+d9cHoK59/vnnBAhAhPSsFG2DBAgh+n4ECEB0CBCAaBEgZKHv15ADhBVWWMF+x2nTprkhye+skslyyy2XGu9LuLGnHz5//nw3pDzuv/9+W4L8/0LDVWkBQqZ1Mtt6euyxx6bG+dKrVy8zffp0N4Ux++23nx3+6KOPuiHl8dxzz9ntSU/g9NZcc037v/yDvgAhQMhC36+hZxBatmxpv+fUqVP9j+rGVKen6mn8zJkz3RBjn/anYQMGDLD9fh4KEL7//vvU/PS66qqr2u5nn302NZ0eCRzmx6noKX/BfhX/ND/f7z3zzDNp06nf0+fTsIULF6bGd+7c2Y1FfVWJGQS/foW7w8444ww77u6773ZDjDnqqKPssLPPPtv2H3DAAbZfbadE3W+88YZtb+Xnq6uzgk/yXLx4sR3u+W1cRY/43mSTTVL9vsjaa69tu32A8Nprr6UOIlTuuusuO1z0CG8N0xM+/VM8VdDwECBkoe8Xh1MM6667rv2uSy+9dLXKJShTgKDfX8P++te/2v6VV17Z9i9YsCAVdOhxv+FHAL/33ntm2LBhqcpFRowYYbs7depk+4P8+4KCw2oa74MHHaHJoEGDbP/RRx9t+1E/VeopBr/u5frsmQIECb5P66u6n3rqKdvvx2n7kV133dX2/+c//7Hb0xZbbGH71S1++jA/nX/ct/igQ1eD+aAimM3w9YQCfz0SXN0+wNf2rf5mzZrZfjQcBAhZ6Ps19ABhnXXWsd/zu+++szty7bCzBQmZAgQfEOjeE8H+YIDQqlUrO058xiGTuggQevbsafsff/xx20+AUL9VaoDQt29f+7n9PVgyyRQgHH/88XZY69atbX+2AMHbZ599bL8PGMLC03s+QPjiiy/ckPQAYa211rLdM2bMcGONWW+99eywYIDQpEkTO27evHm2nwCh4SFAyELfryEHCC1atLDf8dtvv3VDqiqUJUuWuCFV/M4/WNq2bWvmzp3rpjBm2WWXtcN1imHKlCm2u3nz5m5sUps2bdLmseeee7oxxowdOzZtXI8ePezw4I2vNttsMzvM93v6LH6Yivr//PNPO04VrIYpZSv9+vWz/YceeqjtR/1UqQFCnz597Oe+8sor3ZDqTjrpJDtNsGidDZ4a0/qv4QpoxU8X5IMKXzQPT+t/cJwyA5mGi4ISdesycNl9993TplGAoKBffICgrKP4nYIOMtCwECBkoe8Xh1MMQH1VqQEC0FAQIGSh70eAAESHAAGIFgFCFvp+BAhAdAgQgGgRIGSh70eAAESHAAGIFgFCFvp+BAhAdAgQgGgRIGSh70eAAESHAAGIVkUFCLoLn79EzRs5cqS9O1hQcLynYbrr2KxZszKOD9M0BAhAdAgQgGhVZAYhWGm8+uqrZqONNrLdJ598stlpp51st+imPn7a4HuC3dloGl90/bCu7df3pVAodVP8rbZ1I55M4ykUSu2W2bNn222wIgKEV155xf9zW3QPctEd8tSvm/+If8iJih5MIrohkB82ZMgQOywXTUcGAYgOGQQgWrRByELfjwABiA4BAhAtAoQs9P0IEIDoECAA0SJAyELfjwABiA4BAhAtAoQs9P0IEIDoECAA0SJAyELfjwABiA4BAhAtAoQs9P0IEIDoECAA0SJAyELfjwABiA4BAhAtAoQs9P0IEIDoECAA0SJAyELfjwABiA4BAhAtAoQs9P0IEIDoECAA0SJAyELfjwABiA4BAhAtAoQs9P0IEIDoECAA0aqoAOHrr7/2/9wNSVL//fffb4vssssu9kFOJ554ovnrX/9qh22//fZm4403NkcffbRZffXV7bBcNE8CBCA6BAhAtCoygxCsNPS4Z/XfcMMN9nXAgAFp4313pmG5aBpf1lprLTN37lwza9YsCoVSR2Xo0KF2+5szZ07G8RQKpXbLjBkz7DZYEQHC999/b6655hr7AfT6+OOPp7IKfvhTTz1l9t9/f7P22mvbx0Br5y577bWXad26tenevbtZd9117bBcNC8yCEB0yCAA0aINQhb6fgQIQHQIEIBoESBkoe9HgABEhwABiBYBQhb6fgQIQHQIEIBoESBkoe9HgABEhwABiBYBQhb6fgQIQHQIEIBoESBkoe9HgABEhwABiFZkAcInn3xiGjdubGfWrFmzVFlllVXssKZNm5r58+e7qeuePgMBAhAdAgQgWvUug7BkyRKz5557ur7o6PsRIADRIUAAohVpgDBx4kSzzjrr+BnaMnr0aDc2WvosBAhAdAgQgGhFGiD079/fz8xss8029rW+0GchQACiQ4AARKvenWJ4+eWX7YOWoqbvR4AARIcAAYhWZAHC9ddf72dkevXqlVb88FdeecVNXff0/wkQgOgQIADRqncZhHycdtpprsuYMWPG2H5fJNh/77332mESnKYm+n4ECEB0CBCAaFVUgPDVV1/Z12Clocc9t2nTxvTt29c88cQTdpjGq1/FC74n2J2NprnoootcH4C6RoAARCvSAEHzWG655VyfMTfeeKMdVlMbBE2TyciRI83ee+/t+pL8tMH3ZHt/kKbp3LmzOe+88+zpkLlz52Z8XjaFQqmdMnToULsdzpkzJ+N4CoVSu2XGjBl2G4w0g3Dsscea5s2bmzvvvNMNyUwZhOOOOy5VbrjhBjvc999+++22f8KECalhQZmGZaPvxykGIDpkEIBoRZpB6NGjR8bSp08fN0V09P0IEIDoECAA0Yr8FEOmsskmm7gpoqPPQYAARIcAAYhWvWikOGrUKLPpppu6vvpB348AASjc9Omuo0QECEC06mUGoX379m6K6OhzECAA+fvkE203VWXECDeiSAQIQLQiDxDqK322cgUIl11mzG+/uR6ggbryyvQA4eOP3YgiESAA0Yo8QNBjncNl5513dlNER5+t1ADhiivSK8y//EVPq3QjUesuvdR1oFYtXGjMsssas/LKyf4ynXkkQGgAxo0zZvJk14M6cfLJyf1N69ZuQAkiDRCWWWYZ11X/6PuVI4Nw+OFVAcKqq7qBqFW6jYZf5irbbmvMPfforpta4d1EKAvddkTL+MMP3YAyIkCoXN99l74NLrWUMW+8Ycyff7oJUCt0bB1c7ssvnwzgi1UvGinWR/p+5W6D8PTTyR/tiCPcAJRs2jRjttyyaoNo29aYl15KVkjq32mnZNZm1qzk0Uy/fslp/PQK2g45xJg5c9wMkZcvv0wuv623dgNqAQFC5fjHP4zRPe/0c624ojH332/MQw9VbWdPPZUM0C+5xJi//rVqeNeuxsyf72aCkmhZapk++qgxuhDw55/diBIQIGSh71dbjRT32iv5Qw4b5gagIN26VVUwN91kzK+/uhFF0oY0aJAxLVtWzXezzZIVnPiMxIAByf64U1Cl5bFggRtQS8oVIHz6afLzNmvmBqBkaoDaqlVyuXbqZBI7EDeiQFqHrroqOR+VbbbhlESh9tsvuezuuMMNKCMChCz0/WorQJBffjGmSRNjVlqpPJFeQ6GMQNjNNxvTuHFyI+jRo3yX0dVEjez0PzMVHQWpYlSK/bzzjHn4YWM++8yYxYvdm7NYZ53k+99/3w2oILvumvzsQ4a4AbWsHAHCMcek/24q//ufG4mCXHtt1TL817/cwDLTKQjt6Pz/UdB+wQXG7LNP1bDrr3cTF2jKFGNee61qPquv7kZUqH33TX6Pa65xA2oBAUIW+n61GSB4/uhmq63cgJiaO7dqww0WnT744AM3UURGjjQm15W3qtS+/z75OZ9/Ptne4fzzk5miNm2qTndkKiusYMyGGxqz3XbJFKFOP/Xubcx11yXno53ZpEnGLFrk/lnAGmsk5/Htt25ALTn++OT/ufhiN6COlPMUgypTnXpSAOcbcanou0Vpo42M+eIL11Minfcvle5e75fNQQdVZQlatDBm+HA3UR0bO7bqM2Ura61lzJprJjMQyjBqGzr33GSwoeBdpxaHDjWmZ8/093XubMwqq6QPU1l77eQ6oyvQPvrIfZAM3nvPmA4dXE8dUV2hz3jXXW5ALSJAyELfry4CBO8//0n+6DriqSTaOeroXju6XHTOWhvpWWcZ06VLMnOi7+tLx45VEbFKDY/lqFivvpqslPKhzFJiH2leeSXZfkWnU7R+bLxx+rLz5e673RvL5JxzkvPVbxaFumiDoKPKYENi7Vhq65y4guD+/fXsmerrf6aiBmY6naPTXXvsYcz++5tEnZQ8gtZT7BVA6ojY78R9eeYZY956y5i3305O58tttyXff/bZxhxwQDIDppbuwfeGS32q4hUIJ/ZXZfHcc66jBjoFosaVl1+ebOycaRn5UpvtcfQ5/ClQBTp1paIChO8SIbL7525I8nHP66+/vrn00kttkYMPPjgRTa5pDjzwwEQkmAgFE/ZPbF3rrLOO2WeffRIbRc3Xf+h/1GWA4J1+enIlUEVVm7SzVsOifKgBn1qp6xy80oyKzFVZ6XNmKzpvv+eeyWm1s3/9dWOmTnUzRFmo0lfWwVMjzBNOqPoNFIjkWxEq6FBjTu3E/A6nttLI+YqikaICXqW0GzVKLoOmTZOZk/Hjk+O1jDV8hx2S/WHKUDz2WLLhq6bzRUe2t96azAZ5zz6bHKcdT6G0Teq3UjATvP+EUvHKZGl71auqaE3np82HWr2XIxsRBwqytNxVL3bvXvU7aBfzwANuohL431bbZBSNOSsygxCsNMaOHZs4wjnLFg1XwBAc77szDctF0/jSMhG6LUiEcHrkc12UBQvmmr/9bX7ifycrop9+mptY1slxixfPSXXnW/T+336bk4jA55n//vdPO99sZYUV/kgEXEvMzjv/bA499Cdz/vlzE0euc83zz89NVI6JWsYky++/zzWLFs1NVCZzTc+eC0yvXgsSR7yZ/z8lmqLf6Y475ppNNlmU+n3VdkJpdR1Nqih+Dv7+Kl9/PS/j/Oq6vJU4DNb2N29edJ9nyZLk9njTTT8mDjp+rbasfGnW7PfEtvpzYrv9MXHknlz2v/ySeZ61UebNU92QeRyl7ovqx5demmu22+6X1DqiUwNPPPGbrb//+GNOor78MbHT/9FO//77C9Om89333pusY8Pzr6uiR61rG6yIAEHPp+7fv7/9AHp9PXFY+lgiXFe3H3733XcnFvB2ZsMNN0wcjZ+e2HCTTZe33npr06FDh8QR1glmtdVWs8Ny0byiyCCE6fybLhtKfJxUAzeVXC3IE7+RvdTFR7cqOtepjIF+Mp3P9pckffWVexNiSylnrQs6xVOfRJFByIfOdWv7Ago1YULyNI+yezrN5Ov2cNGpyPqANghZ6PvVhwDB0/XDWnFqKgoEdJpCjeaASlZfAwSgNqh9RX0LPAkQstD3q08Bgnfmma4DaOAIEIBoESBkoe9XHwMEIC4IEIBoESBkoe9HgABEhwABiBYBQhb6fgQIQHQIEIBoESBkoe9HgABEhwABiBYBQhb6fgQIQHQIEIBoESBkoe9HgABEhwABiBYBQhb6fgQIQHQIEIBoESBkoe9HgABEhwABiBYBQhb6fgQIQHQIEIBoESBkoe9HgABEhwABiFZFBgjXXHON66oye/bs1HC9+jJo0CA7TPywfOj7ESAA0SFAAKJVUQHCl19+aV/Dlcapp55q7r///tRwveqpjipe8D3h92eiaS666CLXB6CuaXvPZ1sFUHu0DVZUBiFYaQwZMsR/IFs66zmaAX7a4HuC3dlomnbt2pmePXuaPn36uKEA6goBAhA9bYMVESCMHDnS7L777qZbt272Nbzj1nBRalLjVYIyDctG349TDEB0OMUARItGilno+xEgANEhQACiRYCQhb4fAQIQHQIEIFoECFno+xEgANEhQACiRYCQhb4fAQIQHQIEIFoECFno+xEgANEhQACiRYCQhb4fAQIQHQIEIFoECFno+xEgANEhQACiRYCQhb4fAQIQHQIEIFoECFno+xEgANEhQACiRYCQhb4fAQIQHQIEIFoECFno+xEgANEhQACiRYCQhb4fAQIQHQIEIFoVFSDMnDnT/3M3pMrKK6+cGq7HPzdr1szsuOOOZsMNN7TDjj/+eLPaaquZbbbZxnTo0MEOy0XzIkAAokOAAESrIjMIwUpDQcNaa61lu/3w4Phcw3Jp1KiR6dixo9lggw0oFEoERcH9lltumXEchUKp/dK2bVu7HX799dduz5hbpAGC/vmwYcPsB9DrF1984cYk+R2/r1guu+wys9JKK9lh+qI77LCD+ec//2maNm1qhwEAgPKITRsEAACQPwKEBkDpomDKaPLkyebXX391fYUJzkfd+Z6rqsmUKVNcV+EWLlxoPvvsM1s+/fRTNxS5fPfdd/b3mzBhghtSOP32wfXh999/L9v60NDMmjXLLqtFixa5IenbUiFmzJiReu/06dNtt7aBUhX7ebyxY8emtkN1o2Za5iqLFy92Qwrn5+F9//33aetZbSJAKMCyyy5r7rjjDvO3v/3Nnu4QLbdi+Pfpdc6cOeaYY46xDTEL1a5dO/PRRx/Z7i222MJ8+OGH9lxTMZWBTtXMnz/fVlD+tI3abixYsMB2F0LfS6eGlixZYt59913b/qOY+Tz11FNm1113dX1Jt99+u9l///1dX/7+/e9/28+13nrr2XYu6l5zzTXNNddc46bI30knnWSuuOIK06dPH7PccsuZe+65xxx55JHmoYceclPk74QTTrANbrUxNm7c2DYk2m233cyLL77opshfcL0SBYq+uxBaJ5s0aWK7FXD+9a9/NfPmzTPNmze3w6KyyiqrmJYtW5qll17abo8///yzWWqppdzYwgSXlb7vDTfcYJZZZhk7rFCah343Le8VVlgh1RisGP59O+20k3nttddsdzHzat26tX2fggv9durWNvjnn3+6KfKndeHLL790fUnLL7+8DWAK5X87bYN/+ctfbB2jV9UVhXjsscfM3nvvbfr3728/3xlnnGFuu+02c9ppp7kp8nfXXXfZ303r04orrmiXmer4Cy+80E2RvxNPPNE88MAD9tXXB0cffbR5+OGHbXchunTpYl544QXbvddee5nnn3/e7LzzzrZOrQsECAXQin3fffe5vmTFruVWjFNOOcVWtnq/Kjy9PvLII25s/mbPnm03sKD27dubiRMnur78aaPQhrv22mvbI091a2daTIXiDR061F6Rks+VJpmo0tDOU5WJil9WOmIrhuanyuTKK68s+rcTVbjamWsZ6TOpUlGgUMxveNxxx6W1o5k2bZr9bL5iKITWh4022sh+R302v5MvlHZwWj9VQXijR4826667ruuLhpaxGjI/99xzdrlph1xsgKBKXIGP3wY1bwV8xdCVVnfffbfrM3ZHU+yy79Gjh/3tnn32WbP77rvbbu0YiqWduAKrUtb39957z66jfjvUctMBidaTYuj30zYzYMAAs/XWW7uhhdFRuQI6fS4fNKr7rLPOclPkTwGClrOnI3QtrwsuuMANKYwOshRA+TrizjvvdGMKo32y1ssgBQgffPCB66tdBAgluO6668wmm2zi+kqjrESnTp1cX2n0W44fP971FU8ruealrEKplOXQvOobZTl01FEO2jEPHDjQ9RVPla6CvHfeeccNKd4aa6xRtuWu+QQDmfrg5Zdftsu9HB588EGbkSuHI444omzLXTvQcsxLp4g0n/p2mmjMmDF2Oyz2tGiQMpUXX3yx6yuN1isFDuWg5a6AtBw0r7feesv11S4ChAL88ssvrsuYzTbbzGy33Xaur3CdO3e2lVs5aKP49ttvU93FBhr6fnq/XpWKVLdS3cVQWtqtWKmiFHzUWrRokfaZdtllFzemcFo+/fr1s91aH5QOLIayGpqX0sm//fabnZdSp8XYfPPNbfuDclK2RJ9PR7NRe/3119N+P52Wu/HGG93YwujKKL232KPgoOuvv94uI7nqqqtsd7FH/UqV+3mdfPLJtlvn/Ytx0EEH2fdrvSjXAUg5dO3a1daB22+/vc2mFkvBk8/6qFtXthVLy+jmm29OdesUTzGuvvpquw2Xm05r6rccMWKEG1L7CBAKoGUUfJVgdyH8+3Rp57bbbmv7izmvriNNpX7Fz7NNmzZFtUFQSlTnYkUpSSmlDUJYscuqXFSJn3nmma4vSZV5MTfQUsX93//+13b776U0sx9WiD333DN1OsHPa4899ijqFIN//yeffGLP66o/3IYjH1oPlC1Q9si3jVHaPOo2CJnWoUzD8uHfp0Zfxx57rO0vNgjy8zr33HNtuxkp9XMpSPQ7g2LmpbZIvk7XqUIdROgUUdQZhOB38d16LaYNwsEHH2y7/Xwef/xxc+ihh9ruQqge8IGGn5eGFXOKQW0gfObBX8avOvmVV16xwwqh9VGnaXXw4duaKXChDUI9pMYwKlox5e2337ZHysUo5lx1NloJ/dGKuocPH267C6UUn857vvTSS7Zf8ypmpQ7SuUbt6DSv+kJH/foNVZF/9dVXbmjhNB+tD/Lkk0+aJ554wnYXQ+diNQ/R66BBg2x3ofT7lYMqa/12Kj7T5bMlUVMbBC13LW/tEIpVTKOxbLQeaR3XZ1OdoO5iT83pfL9+R51jHzdunJ1XoTtPT5kHvV+/o7z//vt11gI+F9VXWs99XaVtsZhMjtYBv14+/fTTqbq5GPoM/v3q9ttjoXTQN2nSJNdXGgUCfjv84Ycf7DB9z7pCgFAAt6CqlXIpZl4bb7yxmTp1qhk8eHDq/bqJlCqWQumIUacXNB+djxU1ACumovPz0Os666yTGhalN998034GFaWXdWTdrVu3onaqutW3MhJ6r+anSkqvxUT2+gxKs+ooQw3AlGLWOdlRo0a5KfKnhnvBoiNjNd4qlDII+j6qMPU7qjGYjooUyETJ/37hUi7Fzsu/T2lzLXMpdV561faoU0/FzEun0/wVOnq/dsBqgFzsQU25HHLIIaZVq1a2MeHll19uh+nzFRoEPfroozb7piyL3u+3wWICP12R5OsDnYpRBk8ZnGKyePoc4e1Q2ZxiAmx9Hn0nfVdfn+pVgWhdIEAokHYsqgR0B0d/vqoY2hkotRmk36AY7ge0n8d3z507143Nn3+vf7+/NKqYxkPnnXeeXUa62kArtyJqfxfMqKiy1M5X9L1E5wvDpx3yoTSiWhPrnOBNN91kh+mqlmLWCWULdAmTggN9Lp1qUkWuoK9QumwzeEdS7RT8dy2GWl/r/cWeaqoNvXr1sqfAdBSqFv/F0nnwcLat2GWl00t673777Wc23XRT233ggQe6sYXRe30RXXFTzHl67Sj9PDz1F3OFUznpM+iSUs9fDVZogKDsgepRbTt+PVBmtnv37ra7EMq0qN2Anu2jz6I2COou9qqW8HLX57v33ntdX+FUr2h9Cs+3thEglKjYy2Ay8dF0sYrNHGSiS3QUIJRDXa/UqKJLVHV0VA4KEIptEFibyrkNXnrppa6reOVc38s1L7VBiDowiDMF++VqXKh7K4QPLmsLAUIBtIx0ZKxoXkVHo8VuwHqfLm3081Ip9npuwNN6dfbZZ9t1U+X0008v6hSD7qeg66+VXfHzUqp09dVXd1NEQ99PDQH9NqPPV8o2GNyeS5kX4OmmSMok+e1GRZdMFnOKQVdm6CZ6wXnp0mUaKdZz5bo+VoI3WAGQn3Jug+WcF9BQECAUScurXMo5LyAu2AaB2kWAAAAAqiFAAAAA1RAgAACAaoIBwseug0KhUCgUCkXlu0T5v0WBARQKhUKhUOJdlvzfqquuap8ZTqFQKBQKhaKHtP2fnvgGAAAgf/3rXwkOAABAFYIDAACQhuAAAACkITgAAABpCA4AAEAaggMAAJCG4AAAAKQhOAAAAGkIDgAAQBqCAwAAkIbgAKgA/mEo5bD88svbeU2dOtXMmzevrPOWUaNG2fmttdZabgiASkNwAETM75yD5eKLL3Zjk/zwXG677Tb7vh9++MENySwYHMyfP992r7zyym5sYX788Uf7P2+55RY3pCo4WHPNNd0QAJWG4ACImN/x9+3b1xbff+yxx7op8tOhQwf7vlmzZrkhNSs1OPjpp5/s+zfccEM3BEBDQHAARMwHA0F+2JQpU9L65amnnkr1q8yePdum8IPDVESPY1d3//797auyBZkyBxp2/fXX224VT49uVX+jRo1s/3fffWf7mzRpkuoOFgmfVvjtt9/M3/72t9Q0TZs2NQMHDrTjRMN22GEHc8opp6Smef75591YAFEgOAAi5neIQbvttpsd9vbbb9v+4DR6PeSQQ8xpp51mllpqKfPFF1+YK664Ivn89cS4Xr16mdNPP91O26ZNm9R7Nb3aGLRs2dL2a8fvgwOV3r1722yF71+yZImZOXOm7V5jjTXs/BSsqH+dddYxc+fONUceeaTtX2WVVez8ZezYsXbYJptsYvvVraLxKr7f8/0rrbSS2XvvvauNB1D3CA6AiGXaGe688852WLbg4LLLLjN//PGH7fc23nhjO27cuHFuSFVwoIDByxQcaOfuqT7QMAUSuYID+eabb2z/BhtsYPslGByMGDHCdm+55ZZurDHjx4+3w/R5Rd0qXrgfQN0jOAAilmlnmCtzcMkll6T6/TDJFRxMnjzZDckcHATbHPgMRDmCg9GjR9vuzTff3I015qOPPrLDtttuO9uvbhUv3A+g7hEcABHLtDP0w8aMGZPWH3T++eenDS8lOMiUOVBjQx8c+PYDCxYssP2FZg46d+7sxhr7+fx4UbeKF+4HUPcIDoCI+Z3hyy+/bIvvD+5Q/TDfHZ5W1l57bdt933332XGSb3CgMmDAAPPkk0/a7uWWW85OO2PGjNT4l156KdXtg4MJEybYfgUP/n9ma3OQ6TNLTf0A6h7BARAxvzP0ZdNNNzVdunRxY5P8OFEjRN/fqVMnM23aNDtc/HA/7WqrrWa7dYTv6WoBDdP7/E2QdPmjf5/Kn3/+6aY2Ztddd00NP+qoo+yrTj1422yzTWq8+FMJPoDQVRH6nH4aff4zzjjDjpPgeyXcD6DuERwAAIA0BAcAACANwQEAAEhDcAAAANIQHAAAgDQEBwAAIA3BAQAASENwAAAA0hAcAACANAQHAAAgDcEBAABIQ3AAAADSEBwAAIA0BAcAACBNZMGBngO/+eabmy233NINqf7oWtEz4dXdpEkT2y8bbbSRHbbKKqu4IQAAoFwiCw5WXHFFc/XVV1d7br3o2fOdO3c2zz//vNl6663tsD59+pi9997b9OvXz+y000522DnnnGMOOeQQ2w0AAMoj0tMKw4YNyxgc7LzzzubNN980gwcPNt27d7fDBg4caHr27GkGDBhgevXqZYcpUOjdu7ftzubXX381hx12GIVCoVAosS7a5+ar3gUHGtaxY0fbXY7g4Oabb047VUGhUCgUSlxLviINDj777DPTrVs315ekDz9kyBDbrYBgvfXWs9177LGH2Wuvvcwjjzxi2rZta4ftuuuupkePHrY7m9tuu62gBQKg/LQN+lOEAOrehhtuaJZddlnXV7PIggMfxfgiTz/9tFlzzTVtt3fkkUfa8a1bt3ZDjM0gaJi+bE0IDoDoaRvcYostXB+AurbBBhtURnBQVwgOgOgRHADRIjgIITgAokdwAESL4CCE4ACIHsEBEC2CgxCCg8LNnDnTLrNCVqRivf766+w4YiDuv7G+f13VQ3X5v1A5CA5C4hAchCuDFi1a2P7x48e7IVUWLFiQmj5Y+vfv76aoCg4aNWrkhpTHrFmzzP33329vbuURHMRDJf3GZ555pv28V155pRtizD/+8Q877KKLLnJDqmh4uGg9D/LDy03/p67+FyobwUFIHIKDVq1a2e84depU25+rcvj555/tOO34dSWIv/JD5cEHH3RT1Q4FK/o//g6XiA/97pUUAPptwgv3B/lx2p781VUqxx13nJui9vj/BdSE4CAkLqcVfCXRrl07+6qj/0x8cNC0aVM3xJg///zTDtPzK3RHSR3hq3/55Ze349WtdeThhx+23UuWLLHDb7/9dtuv8sYbb9hh3o033pgat9pqq5lPPvkk1e+L6H3q3mqrrWz/woULzQUXXJCaRs/R0Hs9DdOdvs4666zUNCNGjHBjUV/pd6qk4ODSSy+1n1m3eNdt2tX973//241N59fDID/su+++S+uXPffc03aPHDnSvj733HN2+DPPPJOa7pJLLrHDvHfffTc1TuWnn35K61f5/PPP7bS+39P9YoLT+f8nK620kh320ksvpcY/9thjbiwaEoKDkLgEB2uvvXZq4871fTMFB2JXhMRwVTo//PCD7V599dXtOD0HQ/2NGzc2++yzjx2mfhX177LLLrZ7+PDhdtzkyZPTxut10qRJZocddrDdzZo1S81Ht8nWsK5du9r+4Pv8e1U837/yyiubjTfeuNp41E/6jSrt1JFft04++eSc65ifLujEE0+0w/zpuuA0unGb79c6/vHHH9sbuqlfy8iv91dddZWdXoLTL7300vY9we1D3drGgtNKy5YtbbduSR+cfu7cuXb8WmutlRqmm8z57tmzZ9vxaDgIDkLiEhzo6Nlv2IMGDXJDq8sWHGgd0PBcwYFOQYgqIfWr4tHtrh999FHb729KpW6VMFVoGr7ddtu5IenBwauvvmq7VYl5r732mh2mikvUreKF+1E/6TeqtOCgb9++qfXr2muvdUOry7QO6rbuGpYrOOjQoYPtFz/+rbfesttUcHpl1dStO8qGBafzgsP0uswyy9huLzjeBwfz58+3/cryqX/OnDm2Hw0HwUFIXIKDddZZxyy11FI2TajXRYsWuTHpSskc+NMJwcxAsCh7Ib4/7KOPPrLDswUH/hSD0q7eCy+8YIcdeOCBtl/dKl64H/WTfqNKCw4kn/Ur0zT5ZA6CDXP9+HARHfWrW6cWwoLTecFheg0GB9qGNcyfMvTBwYwZM2x/8+bNbT/BQcNDcBASh+Bg1KhR9jtuvvnm5ogjjrDdemhVJpmCg99//90O04qjqxmyBQeLFy+2/T448M+4CNM4lbCaggOfOdh3333d2KqrGXzAoG4VL9yP+km/UZyCAz9M5/KD/eKDg+A2GhwftuWWW9pxvk1BUKb3BYfpNZ/MAcFBw0dwEBKH4EAPp9J3/Pbbb23/csstZ7MH/kg/yAcHyjAoqHj//fdtv8o222xjp6kpONBVEf49Op3hgxPP9yt4UPdDDz1kh3/wwQd2+GabbWaHS7Y2Bxrv56Pi1dSP+km/UUMPDsLrrN9+xA+TTMGBKm0Nu/fee+08OnfubIYOHerGVv8fflxwuM8W+mHi2xy8/PLLdpo11ljD9n///fd2PMFBfBAchDT04GDs2LH2++m0grf77rvbYUrJh/ngIFjatGljj048f7WCzy746XxwIGqF7YerhLMI/vJKXzxfWflhquTU7bMJb7/9dqoCU9HKfMopp9hxEnyvhPtRP+k3aujBgS+qVMPbgx8nyoypO9w2SEf4fjptAwqmvcMPPzw1TsVfoaPTbX5YpqsVlBXUZ/HDVDbZZBM7TlZddVU7bPr06bbfHwjQILHhITgIaejBgY4WdPlhmIbpssBMNC5YMgmOyzadH55pnPhxqqCCgu/RZZTq/u2332y/56f5448/3JCk4Hsl3I/6SdtgJQYH+axffppc0wbHaV1Xd3jd1naSzzzC4/0wbUvB/iA/LNtwL9M0aBgIDkLi0iARqM8qNTgAGgqCgxCCAyB6BAdAtAgOQggOgOgRHADRIjgIITgAokdwAESL4CCE4ACIHsEBEC2CgxCCAyB6BAdAtAgOQggOgOgRHADRIjgIITgAokdwAESL4CCE4ACIHsEBEC2CgxCCAyB6BAdAtAgOQggOgOgRHADRqpjgQE8F22GHHezTx7wvvvjC9qsi0evTTz9tu33xOnXqZPv14WtCcABET9sgwQEQnYoJDvQh+/bta7p06eKGGLPbbruZ9957z/UZ+0jTI4880vUlPfLII6kn+OlpfQcffLDtzobgAIgewQEQrYo6rTBs2LC04EAVSLdu3eyrnmsezBzoOeMyYMAA06tXL9vdr18/07t3b9udjQ8OFEiofPTRR/bZ5RQKpW7K3Llz7TbYoUMHM3PmzIzTUCiU2it6DP96661X2cHBkCFDzI8//mi7g4477jiz5557Fh0c+PLCCy/Y+VMolLopCxYssNveZpttZgOFTNNQKJTaKz/99JNp3bp15QQHn3/+uc0UeKpAHn30UTN9+nTbPWrUKDfGmO7du9vgQKcV2rdvb4ftu+++pkePHrY7G04rANHTNshpBSA6FXNaQZVFsMgPP/yQ6h84cKAZN25cqr9ly5Z2GlFQoGGKhGpCcABET9sgwQEQHS5lDCE4AKJHcABEi+AghOAAiB7BARAtgoMQggMgegQHQLQIDkIIDoDoERwA0SI4CCE4AKJHcABEi+AghOAAiB7BARAtgoMQggMgegQHQLQIDkIIDoDoERwA0SI4CCE4AKJHcABEi+AghOAAiB7BARAtgoMQggMgegQHQLQIDkIIDoDoERwA0SI4CCE4AKJHcABEi+AghOAAiB7BARAtgoMQggMgegQHQLQIDkIIDoDoERwA0SI4CCE4AKJHcABEi+AghOAAiB7BARAtgoMQggMgegQHQLQIDkIIDoDoERwA0SI4CCE4AKJHcABEi+AghOAAiB7BARAtgoMQggMgegQHQLQIDkIIDoDoERwA0aqo4GDKlCnmqquucn1J33zzjTnyyCPNjTfeaPvHjRtn+++66y7bLyNGjLDDHnzwQTckO4IDIHoEB0C0KiY42HXXXW2F0bVrVzfEmDfffNOsuuqq5v777zevvvqq+fzzz+006terAoSPPvoobdgDDzzg3p0ZwQEQPW2DBAdAdComOHjmmWfszr9Lly5uSLIC+f33381ZZ51l+wcPHmx69uxpu1955RXbPWDAAHPsscfaYc8++6zp3bu37c6G4ACIHsEBEK2KOq0wbNiwasHB8ssvb44++mjTvHlzmz3o3r27HTdw4MBUcNCrVy87rF+/fnkHB74ooJg1axaFQqmj8tNPP9ltr2PHjuaHH37IOA2FQqm9Mnv2bNO6devKDg48dQ8fPtwceuihtr/UzMEVV1xhy6hRo+yColAodVPmz5+fCg7mzJmTcRoKhVJ75ccff6yc4OCaa64xJ510kmnTpo3tloMOOsisvvrq5ogjjjCrrbaabZyoSkXj9frYY4+ZL7/8Mm2YMgq5cFoBiJ62QU4rANGpmNMKf//739OKF+7/9ttvbf/jjz/uhhjz9ddf22FPP/20G5IdwQEQPYIDIFoV1eagLhAcANEjOACiRXAQQnAARI/gAIgWwUEIwQEQPYIDIFoEByEEB0D0CA6AaBEchBAcANEjOACiRXAQQnAARI/gAIgWwUEIwQEQPYIDIFoEByEEB0D0CA6AaBEchBAcANEjOACiRXAQQnAARI/gAIgWwUEIwQEQPYIDIFqRBQczZ84077zzjmnatGmqaNjcuXPdFNEgOACiR3AARKvOg4Pff//dNGvWzG78K620ku32pVGjRnZ48LHMdY3gAIgewQEQrToPDsaPH2823XRTM2PGDDcknYavuOKKrq/uERwA0SM4AKJVb9ocLFmyxLz99tuuLzoEB0D0CA6AaEUaHPzxxx9mzJgx9kOoMqgPO2WCAyB6BAdAtCILDtq3b58KCFQ22mgjM3nyZDc2OgQHQPQIDoBoRRIcjB492qy33npm5MiRtn/ChAmmY8eOtjtqBAdA9AgOgGhFEhwsXLjQbvwq22yzjQ0MOnXq5MZGi+AAiB7BARCtSNscyNChQ1OBQpSXMHoEB0D0CA6AaEUeHARdc801ris6BAdA9AgOgGjVeXAwZcoUc+aZZ7q+zA488EDXVfcIDoDoERwA0arz4GDevHl2w1fp1atXWtl9993t8ObNm7up6x7BARA9ggMgWpGdVnjwwQfN5ZdfngoUVDTspZdeclNEg+AAiB7BARCtetXmoCa6tfLNN9/s+ow57bTTUuWOO+4wI0aMSBvmjRs3zvY/8cQTbkh2BAdA9AgOgGhVTHCw//772wqja9eubkiyArnxxhttefbZZ83gwYPtcxv8MPn8889T0+m1pgCB4ACInrZBggMgOhUTHPTr18988cUXaZc7qgLp27evLaLgoF27drb/mWeescMGDBhgjj32WNutAKJ37962OxuCAyB6BAdAtCIJDqZOneq60l111VWuK7Nhw4alBQc+MDjooIPMmmuuacaOHZsapspFAYKCAzV2FAUY+QYHvijgmDNnDoVCqaMyf/58u+3p5mg//vhjxmkoFErtFW13rVu3rvvgQLdP1sb/6KOP2v7ffvvNnH322XZYLuHgICj83vfff9/07Nmz6MzBeeedZ4tOS8yaNYtCodRR+emnn1LBwQ8//JBxGgqFUntl9uzZ0QQHcuihh9oK4Pbbb7evyyyzTKqdQCaa7pxzzjFt27a13aL3qPuEE04wzZo1M/3797f9fp7333+/+eSTT9L+j7IHuXBaAYietkFOKwDRibzNgSqBPn36uL7sjjvuuLQi3377bVq/+P777rvPDTFm1KhRdlhNgYEQHADRIzgAohVJcKCdtTb+TCVqBAdA9LQNEhwA0YkkONAtlHv06JGxRI3gAIgewQEQrYq5lLGuEBwA0SM4AKIVSXDgr1bIVKJGcABET9sgwQEQnUiCg8mTJ5vtttvOFlUCvlslagQHQPQIDoBoRX5aob7tiAkOgOgRHADRiiQ4WLx4sb1iwV+14LtVokZwABQnUZeYjTd2PSUiOACiFUlwMGbMGLvxZypRIzgACrfJJtqhJ0unTm5gCbQNEhwA0YkkONAzEPSApCVLllQrUSM4AAqz335VgYEvhxziRhaJ4ACIVmTBwUYbbeT66pdyBgeLFhlzxx2uB2ig/vjDmOWWqwoMOnd2I0pAcABEK7LgQM9F0PMQwiVq5QoOlATxFWbgTs5Ag6PTCFrPW7VKnl4oB4IDoHDz5xvz0kuup0SRBQdLL720adq0abUStXIEB8oYLL98ssL05aGH3EjUuuefV6NX14Na9fe/J9fvPB5bUhCCg8r3t7+5DtQJ7XcSx9x2e3z9dTewBJxWCClHcDBlSlVQ4Esez5ZCGbzySnJ5K2ujdDdqj45QtKwPP9wNKCOCg8q2yy7JdWOffdwA1CodDDVqlFzmvrz5phtZpMiCg43Ldc1TmZXrtEI4QLjnHjcCtWbo0PRlruzNWWclMwm//eYmQlnMnZtcxuuu6waUGcFB5erWLX073HVXY37/3Y1ErfjiC2OWWip9uf/7325kkSIJDuqzcjZInDzZmOOPN2bvvZM/1vDhbgTK6uWXTWJHkr5hZCorrGDMhhsa85//uDeiKH/+aYzOAKre+PVXN7DMCA4qy/ffG7P77tVPpwbLyisb07WrMV9/7d6Esvn00/TMwfXXuxElIDgIKWdwENS6dTKy++47NwAlu/pqY1ZdtWqDOO88Y/r2rer/5JPkeThlcT76yJgTT6wap9KunTGPP+5mhrxttlly+X3zjRtQCwgOKoN29NqO/Daly1o//9yY1VZL9q+9dvIgafBgY/bcs2q6NdYgm1ouX36ZXKZqz//uu8b84x9uRIkIDkJqKzj4+edkVK0jLlLcpbnqKmNWWim5QbRpk4yag04+2ZiPP3Y9GUycmEy5NW6cnMfSSxvTpYsxmW7QqawEqvTqlVxmgwa5AbWknMEBVwuVn85xb755cl1QefppYxYudCMTVMe1bFm93Y/ep3ZBa62VfJ92JWTyijd6dHI5KitT7iwewUFIbQUH8u23yR9ynXXcABTkySeTlYmWoTIx5bjb9pgxxpxwQnKeKjriOfLIZLbBN25URQZj7rwzuTwuuMANqEXlCg50zwV95v/+1w1AyU46KblMVUq5SkUZBp3m03y0c1PQj/yNH59cdjpQqo3TewQHIbUZHIiORDX7Aw5wA1AjNbZZf/3kcltlFWM+/NCNKDMFA9tsk/w/4aJr+EvN+Dz7rOuoQG+/nVwO22/vBtSycgQHeshr8De89143AkUZMiS5E9eyPProZDa0HBQk+HtlaEcXDj51KlZBezlsuWXDWA90Sk+nqZWN1qnT2kBwEFLbwYFcfnlyQ/jXv9wAWA8/7DqcOXPSK3idt6wLCgIOOqjq/waLTkHoHOsOOyQv4bv2WmNeeCF5qiIXpV31/nI8d6CujR2b/Ox1mUEpNTiYPr3qN/NFASYKN3t2VQZG64BS2bVBBwHB4FyNF2+/vapfgUmxlAnceeeqeT3yiBtRgbSc9B3UAPGXX9zAWkBwEFIXwYH07Jn8gXWZHYw57LDk8rjxxmQDJn+dtEpU5yT33bfqMygwURCgBo9qn9CiRdW4YNG2tPrqyTsFajr9zmefnT7N1lu7f1CCgQNdRy2bNSv5mZs0cQPqSDkyB1Onpi93lfXWY5vLZc01k5epioJkZTj9snviieTw2qZAW43qgr+bL8ocapvyRZksBerbbps81aiie5zoyqRM7w8WvVfzuPLK5JVklXC5pW98qIbYtZUx8AgOQuoqOJCOHZM/dK7Gc3HQu3f6RuvLFVdEfyMjHcm8/77ryWDBAmPGjUvekUznXy+7zJhjjjFmxx2TLbUzfS9f1GBLWQhdArbXXsnloDsOKkDSDuy995I7uDD9H72/e3c3oJb8+GPy/yh9WdfPRCtHcCBq56PlLLppk4Icfae2bZOnkaKiFH25TtE895zrKJEaS2vZqBx8cFX3GWckL1+NwmmnVX2OTEXbmLIZaselbUiXjZ9/vjEXXZTMRKoosNcpveD7FGToHh3BYSpaBmpoqW24f//cd1pVNkX3Vqkrr72W/Iy60qMu7gBLcBBSl8GBqOLSv5swwQ2oMM884zoKpDTfrbemp/p8Kdf5xfpCAUSwZbca9unISOdtdYMYHc3qiC24DMJFt0VVWjx8gxkd+dSGn36quqmK7tde18oVHGQyYEDVkaXuxTZsmBtRR159ter3U+pclLqfNi3ZXQhdiqv5lLIeqD2Jdpb+M/ly6qnJdTdqp5yS/Dyl3oJeGQnNRwF5kDIkuuLp0UeT96XZdNP05bDiisl66p//TC4rCZ7+eOed5LDapKuD9L/UgLOuDpgIDkLqOjjQD+0b+cyc6QZWCB3Z63PrfgPZzJiRrHx16WCPHsa0b1+1UanovJke7+v7E+tXg73tsRo16nxhTbQzVrCoaVUpKJjQfeqD14kHi25Rm89886UdldpWaN4+xVzXajM48LSz8UfLuiT2scfciFqg7NMllxiz005Vv1uuos+lnZjuKaH2L7o8V1klNaZT0VGtTrcF33Poockd1VtvJU876T4CfnoFo3q/gggFmB06ZA4IfDnzTPfB6wldqVQOI0a4jjwoI/jgg8m2RaqXMi0nX2qrkbTohkb6H8pG1qWKCg7mzJmTWNGrmppeeOGFqfKIa2Hy/fff2/6n1QLM+eabb+ywwXm0aKvr4ED8PRD0O+gcbyXwK6wvPpWnCkqN7nzAEyw6WtP5wXPPTZ6/VPbA01GTlgG3Wa1ZMMsQDKzU1uGuu9xERdIpLj8/NQiNSl0EB56OGLXs9J21U77mmuxpW7Wsz4eORu++u+ruqL7otwum71X0WHftzFUUROv/K6ukGwqpQa4+Wz7n0PMpOq2i8/Kar05j6X/pxjna7m64ITmNjtSRmdomqJ4LL1etqrVxUycF/pq/AsS6VjHBweGJ8E0VRlefh0tQ/6WXXmrLY4mwf1wi1PPD9DowsbWNGjUqbdhzNZygiyI4EJ1b1u+gf62j7dqkVGo+jVl0BKtI+403khWorrI46qiqlsuZihrKbLVV8l4BuhpDaU/dqbAuzpHFiSr5r75yPQn33191uaeKHvSVT0tmnZNNxM3Wddcl36vArlyXqRVL22BdBQee2iCoEalfhmqQqiN0z2duPvvMDQjRtqLsQDA7poBXR/3h9g2JeteOL7S9kW40pGyOirYrH9So6BSf7gSqo1hd6uanU9uRfAWOvZCDHmqkZa5TEGrQ2Lx51e+g+6aorUsptD/wBwGlPiOhWBUTHNyRCK+/+OKLxMab2HodVSA3JMJdFVFm4FAduia8ktgae/bsaQYMGGCOPfZYO+zZZ59NRMuJcDmHqIID0Xlef9e+SZPcwDLzdybTb64UpBq+6QYx2kEofaYjCv28miZT0VGPUp1qsOTPSet8eDluSITSffCBMXvsUfV7qZGWGr9l8tRTVdP5nYzaQNQHUQQHnjImaginHbtfPro1re9WeeCB5JG2rkTRtfPBcTodoPPTusFWLuV4rK4aCuqcuC43Rd168UXX4ejUnupQvx4og5pvY1GdbvK31r/55qp5KKsTlYo6rTBs2LC04OCss86yZc9ESN+qVSvzv//9z3R3TbiVNfDBQS/d8zWhX79+eQcHvrzwwguJ6HtunZXvvvvRrLDCH3bFePrpJYkjhR9T437+uao736L3/PHHbDN8+CLbylXzzVaaN//NbLzxYrPbbgvMMcfMNVdfPTfxGeYmdjhzE5GwTj7PTVRGc82SJZrvXDNhwlwbIHzzTeb/TYmmLFw410ycODcRKM8zSy/9Z+r3VeCn00GJVTyVQg6WDh3+NL/+Wvg6Vu6yYMGCxOf5v0QQulkiYP4p4zS1XebNS67vQ4fONUce+VO1ZeVL48Z/mLZtF5tDDvnJ3HOPPvtc89tvcxOfO/N8a6Poc2YaTqn7ot9fv/0558xN1eOqI3Xa9bPPfrZ18aJFcxLTJbez336bY69a8euTzyjtuOMv5scfM/+Puija7lq3bl25wUGQKpPhw4fbgEAUKJSSOTjppJNs+eijj8yMGTPqtMyePd1eJ6+V5LTTfkxU9jMSn32GOf74uYkVJvN7gkXT6D3PPTcjsQzm2vlkKnvu+Wci2p2TWBmmJVbYqYkVdlpipZhu/3+m+WYqCxdOyzicEn2ZNWtG4nedlgjwFthnIuhcc6b1wJdPPpljZs7MPK+6LKqctA126NAh8XlmZpymLou2h6eemp9aTrq65MsvZycq9inml1+mJQKJ6fViuVHqT9H6oDr1oYd+sZcq+3VHZfvtf0nsh+aaSy+daTbffGHaOJUrrliQWKeirVdnzZqVWM/Xq4zgoH///qZv376mffv2tltWWGEF233OOeeYlVde2YwZMyaxcP/PDtOrdvTvv/9+2rC71UoohyhPK4Tpshp9FLUR0KvKxRe7kVnokpyzzqqaXq3O1bDJt8VUq3cNV0MpxJvaJOiGMVof6tultNoGozqtkI1SxBEdF6EB0G5LiW2d2g2esgoWtVepLyrmtMLBBx+cVuTrr79O65fRo0fbfu3kvc8++8wOqykwkPoUHIjSUeEVSAGCKnO1S1ADJF3upoRJcBolWLLdy1/nQwHR+XXdda2+qY/BAVAb1OZLdbZuzFWfVFSbg7pQ34IDtU72jyfOVXTNsi7kKPVGIUB9QHCAONEVD/UNwUFIfQsORAGCWiTrY+myQl3Cpts46DLBct78BqgvCA6AaBEchNTH4EB0z4HAfZ2ABo3gAIgWwUFIfQ0OgDghOACiRXAQQnAARI/gAIgWwUEIwQEQPYIDIFoEByEEB0D0CA6AaBEchBAcANEjOACiRXAQQnAARI/gAIgWwUEIwQEQPYIDIFoEByEEB0D0CA6AaBEchBAcANEjOACiRXAQQnAARI/gAIgWwUEIwQEQPYIDIFoEByEEB0D0CA6AaBEchBAcANEjOACiRXAQQnAARI/gAIgWwUEIwQEQPYIDIFoEByEEB0D0CA6AaBEchBAcANEjOACiRXAQQnAARI/gAIgWwUEIwQEQPYIDIFoEByEEB0D0CA6AaBEchBAcANEjOACiVVHBwbx588xjjz3m+qpcc8015qmnnjJff/217fbF+/77723/q6++6oZkR3AARI/gAIhWxQQHJ554oq0wunbt6oYkvfzyy+aQQw4x++23n3n++edNmzZtzDnnnGOLjB8/3r5P/XqtKUAgOACiR3AARKtigoMbbrjBfP7556ZLly5uiDHfffedWXXVVc3QoUPNvvvua4ODzTbbzNx9993mzTfftNMMGDDAHHvssbb72WefNb1797bd2RAcANHTNti5c2fXB6CuVdRphWHDhqUFB3369DEPPvigefvtt81BBx1kPvvsM3P00UfbospFAYKCg169etnp+/Xrl3dw4IvmP3LkSAqFUkdl8uTJdttr3769GTNmTMZpKBRK7ZWxY8eaVq1aVW5wENyJqwQpYOjZs6cNDnxAMGjQoLyDA71X5auvvnJjANQVbYNkDoDoVEzmYPDgwebqq682m266qe0OGj58uDnwwAPNvffea8epqHK5/vrrbZCgbj/s1ltvde/KjNMKQPS0DdLmAIhOxQQHu+++uy3dunWzr0Effvihufjii223ny54tcL7779vh910001uSHYEB0D0CA6AaFVUm4O6QHAARI/gAIgWwUEIwQEQPYIDIFoEByEEB0D0CA6AaBEchBAcANEjOACiRXAQQnAARI/gAIgWwUEIwQEQPYIDIFoEByEEB0D0CA6AaBEchBAcANEjOACiRXAQQnAARI/gAIgWwUEIwQEQPYIDIFoEByEEB0D0CA6AaBEchBAcANEjOACiRXAQQnAARI/gAIgWwUEIwQEQPYIDIFoEByEEB0D0CA6AaBEchBAcANEjOACiRXAQQnAARI/gAIgWwUEIwQEQPYIDIFoEByEEB0D0CA6AaBEchBAcANEjOACiRXAQQnAARI/gAIgWwUEIwQEQPYIDIFoEByEEB0D0CA6AaBEchBAcANEjOACiVVHBwc8//2yee+4511flzjvvNEOGDLHds2fPtv3Dhg2z/TJjxgw77J133nFDsiM4AKJHcABEq2KCg3POOcdWGF27dnVDkv73v/+ZffbZx+y3337mu+++s9Mcd9xx9nXo0KHmm2++SRv21ltvuXdmRnAARE/bIMEBEJ2KCQ4uueQS89lnn5kuXbq4IcZMnz7dNG3a1GYJ9t13X/P888+bQw45xI57+eWXTc+ePc2AAQNM79697bBnnnkm1Z0NwQEQPW2DW2+9tesDUNc23HDDyjmtoCAgGBxceuml5r///a/NBhx44IFm8ODBpnv37nbcwIEDU8FBr1697LB+/frVGBz8+9//NptvvrmNmigUSjRlyy23NJ06dco4jkKh1H5R5m6ZZZZxe8aa1avgQEcXwaIgwWcOXnrppaIyB9OmTTO77rqrPX1BoVAoFEpcyy233OL2jDWLLDhQYKAPqqP6YGNDeeONN8wBBxxg3n33XRskaLxeL7vsMtvuIDjs2muvde8CAADlEFlwsM0229iy7bbb2tcgBQXnnXee7X7//ffteLVR8BQYaNhVV13lhgAAgHKJ9LQCAACofwgOAABAGoKDCqb7QHz99deuLyncny/dP0LFd2s+f/zxh+0vRbGfx/viiy/sJa8q+r6omZZ5Kcv9999/t++fNGmSG5Kc559//un6EBRe3jNnzjTz5893fYXRfPx2F55vsb799lvXVTy/DX766aduCHKZM2dOyb/f1KlT7fuD21051od8ERzkSfdf0GUgixYtsv3nnnuuuffee213Ib7//nuzYMECM2XKFLPccsuZ5Zdf3jz44INubGF0eYp+u6WXXtr2ayVSI81C/fTTT/Z9q6++ur3rpLpbtGhhxo8f76bI35gxY0zjxo3tPIKlc+fObor8afkutdRSZt1117VFn+nwww93YwszevRo+9lU+vbta04//XQzatQoN7Ywp512ml3mixcvNieffLL9vk888YQbW5gTTjjBrLTSSubuu++2/doxqL9Qm222mf29OnbsaDfqNdZYw36u3377zU2RPy0X/WZaH/w6oP5ffvnFdkdFv51+R32nlVde2V7uXAzddVU7cN2hdcUVV7Tb4N/+9jc3tjA//vijXTZa3tddd50ddswxxxS1TevGb6uuuqpp1KiR2X///c0qq6ySWs8KlWkbLOQad0+BYrt27cyaa66Z2g5XWGEF88knn7gp8qe60/+G2sk1a9bMBv+TJ092U+RPd8jVd9Jvefvtt9vvW+xveN9999n6/ZRTTnFDksuvGP59+mxaJ/Sqy/OLofZ4Ws+1PvgAQfOrKwQHefjXv/5lK2xVJtowlixZYncKusFSofbYYw/z7LPPmj333NOulAoSFHS8/vrrbor8+RVl4cKFNtCQYlYeBQeqJEWfRRWeSpMmTeywQvgdi47yFQSpW6/6jIXSe/XZvGKDH9H79H3WWmstWxHo+6oiLobmpXVBlZtfL/zyL5SWt9aHgw8+2K4PUsx3bNOmjT3Sb9u2rZk4caIdpop8woQJtrsQ+i66BFhWW201e3Myfc4ogwPdTl07Sv2G+v0U3P3nP/9Jq9Dzdc0115izzjrL7sxPPPFEe5Sn7drv3Atx6qmnpi4PO+OMM2y36oaHH37YDiuE6gZdjaUA0a8Du+yyixk+fLjtLoTe/9prr9l1U+vByJEj7XZYKK1L4f3De++9ZwPHQvkDD30ebYfq1nz85eqF0Hv1fRS0aOep76l1tBh6v+p4rRdar8Qv/0L59wXfX+q8FFQFg466QnCQB1Ukd9xxh+3WTk47lpNOOslWToU6/vjj7RFxjx49Us+P2Hnnne0OolBaURTZi9KY+lw+i1CIefPm2Z2cAhXNs3Xr1vbUQjHBgT7Phx9+aOfjg4Ni6b2quL1gpVkoVUaqBDSPm2++2fTp08eNKZz/DDpCvPrqq213sZ8r+L699trL3tirmHnpN1QFsummm9rl/8MPP9j5BE8N5EvLKZiKVsZGGZwogwPd30TbTDBAfPTRR+29Twql7U/boY7o/Hrwj3/8o6gjTwUnutGap0yQgqtiggMFiIMGDbJ3h9V31F1ht99++2qXeufDZzQ+//xzGzj6gLFQep+C4KC33367qOBApyS0r9H3lGLWc8+/VxkEZVmk2PkF33fhhRfaK+OKnddRRx1l+vfvb9+vukvrgwLPYmgev/76q+1W8KM6utjPVQyCgzxcfvnlaUeG2hHrRyomcyCqxFUB68hVOy2ljpSNKJTuEaEUnacUWzE7dGnVqpVNO2qnoA1fn6+YdJ+nh2MpXVvKyqzUrFKrWkYq2jiOPPJIN7ZwuvRVR51XXnll0SlI0amNtdde2270OlrRsis2c6Dl88orr7g+YzNKxS4zLXMFiPrt9FsqSCjGV199Ve1oUetolMHBCy+8YHeUovVAFJjpKL0YWg9UtI62bNnSLvNijqxVF4RT0Mcee6zdQRRD65F+Q/2WvruYukG0c9IpAX23YjJIomC/Q4cONkWubdAvKwUdxVBwp+3lsMMOs/Pxp2kLdeONN9ptUEGr1gfNU93F0Lbig3z55z//WfQ2qCBdBw2qhzVf1RH+AK5Q3bp1SwsM586dW3T9XgyCgzx9+eWXritJ6W6tCMVS+t0X3wCpVMVWItmUY346vaBzpsXOS5kav5yUGi2VPwUTrAwKpfPVPk2rI3Sdly/mvLAoWxNuvFbsUV6Ylrk/V1mKcsyjHMI7JK0TpdD7FVzrVUdm5VKu7dkrdX7aBhXYFbuOigJGvx36hsuleOyxx2xwVixtM/osOuWlbXrs2LF251kMvU/zCSo2mMqklOUeVO76vSYEB0XSQyyeeuop11eajTbayKbqSuWj+nLQfHTUUg6aV/v27V1f/fD444/bo6py0F06N9lkE9dXmjPPPLOoxpth/hRMOVo3q+LUvMq5Ay0HNcJU49Jy0PpZbMOxMC0r336kVJqX2iGUSqeGNK/6ZquttrKnaEulU7Sqk8tBv53q5HI49NBDy7bcVS/U5W9IcFAkpRKLuVohTEdlSj/p/GKpFNGrNXA56EihmKsVMhk3blxZjjZKpaMNFR3x6zxxOB1cLKUhiz2vGKaHiulUSjnoqLgcRxtaRzWvch8RF0qfw/+GOherc+FqO1AO2gZ1e/Zy0Ppe7FFsmOZVjtM5ChLLVTeUk35DtbUpldps6RRROeh0cbnqBl2OGDz1WwplgMo1r3wQHORBFZFvGKJzXTrXrwdBFePiiy+20XI5KlpFpbp0TQ466CDbrUsli6FW0TvttJPt3nHHHe28ij0f6M9z+uI/Y5R0qWHwM6mV8yOPPOLGFuamm26yDf/k+uuvt5cc6SFhxVBDOD0tTXR5rM6rKzArlBp51cZy3mGHHex8/fofpfXXXz/tN/Tra6GefPJJ+52KucwzE2Uw9BA4361SLL3XXyaoz6i6plh6v59HOG0eFX03re+qA/Va7Cmr//3vf2bjjTe271fWQPPTJY3FUD2geYnaOenR4v73LJSWdTGNy2tS6rpQDIKDPKhFslLH999/v62UfGv8F1980U2RP7Ws9a1hVbmVcjpB89BlRdpR+e5iViAd5ShS1uWUqpzU/eqrr5rddtvNTZE/nYtfb731XF/SQw89VLYUfrG0fBTFe741fzH0Pq0DagSl7g8++MB2F8P/brpnhbp1uZe6C6W0uA+A9NyRWbNmuTGF0zx0tKqraJQRUYNJDSs2WCwHnQZSpR10/vnn2we0FeqGG26wGRp9JwXC99xzjxtTOLVG1xUP2lZUmSrY09UG/kqkQuiz6KhVQZCOgrWz0/ZcTOM/fTetD/7hdWrIpvYtUVK7AH0W1ZvK3OkR3uovJjOi92m7077Ld5dyabK2ZzXEDnYXQ+/XgZoOPnTQUArNS5TV0rqgAKZcpzvyQXCQh7PPPttutGrhrktnRNc0F3Mpo4KDp59+2nY/99xzdgVQa+CPPvrIDiuEX3l0vttf8ueHFSJ4nwOfHtfOJXwJUz6U9gqff1c6s66j3rBMy6WYZSX+fVoH/I6l1HntvffeNiCTYual4MCnHP0TS7fccsu0gChfWhfUiCqYWtUlslFeraAdXTgQ0KWMuryxUAoOtE2LjkC1rNQSv5hMkq6Lv+uuu2y3/92OO+64oi5lVOt03ZtA/LwUoL355pu2uxD+/Tqy9t3+NSrKrmmdFO3MlSXTTZCKybT47zJw4EAb6Emx38+/T1lA34al1HnpNOquu+5q+7t06WKHFcrPK/hZiv1cxSA4yIMqEjV2WWeddexpBendu3dRwYF2ArpmO0jBweDBg11f/nSErhunaIVR8d2FUnpV57n9yqyi7mIaJPp7G+iz+KJ+PV0zSqqwdUMfnd9U0bLr3r27G1sYVeLaUfllpfnotRgKmoLz8t2F0hFF+HykLvEqpkGiLlvcfffd7aVhOr8v+kxRNkhUsKrP4H8/fy8A7VwKpZsd6S6XQTpF558EWwgFvgrM/BGssj4KNIppkKiUuxqd6WoazUtH1joaLqZBogJ7HblqXdW8xL9GRVd3KcjUZ1KQoMypAgadEiiU6uRybYMKLso1r/D71G6rlHmF6/Ri51UMgoM8qAJSWlPFnw8uNhWp0wjlekbAxx9/nLoOVhVLMTdL8ZQG9efKlIostYW0siKanz5TsddEl5uieV1/rqNQnXculi5r1VGr2ncoVaqrVor9TZXC1GfRTWv0e2pewbtC5kunhPyOvFRaF/T7qfi2MeVoMFsO+v10GZyOGLW8iqFGfnpOQLloHfdtkNRdynaobcZvh5pPMacuPb3/+eeft93KIJTyucpF2Set49p+REFfMZkRZcS0Lqje0/1dNE/fVqNQumxR79e2rHu7qLvYq3zK2d7Ab4MqotN7ddn2h+CgCMXe073cFEWq+KN1FX/b20Jog9WNO+SII45IzatYusGJio4USp1XbdCO1N+lrVQ64izlxky686Z/vzJRWv6qpMpBl0XqngyF0hUA/jf0R1TqLtf12uVQzC13a4MasGn56LbV2jGUsr7r3hsjRoyw3f4GYsU2uvSXNeumWqLsYLGfq5x00yptM54yL6Xcc0S0/Wj9LJZO5/n6QEGwMgk+qCqHYj+b3wZVdIpP60Ip37NQBAd50Lllv9EHiz/FUCr96LptaqH0GUQVid/A/LBC+DYHCjL8eWa1rSjmVsyq3NQYR/cq12fRkY+O2HVL5igpfa/Po1M4etVtitXwqxh+Gese8dpYde5UKeBiaF5qsKl5qFs7G51nLpSugtGpk2BRI7RibqiklLRuUKPPdeutt9rTE/pc5WrdX4zw1Sa++Fvnlkp3QdVt0gulukHrkm4NrM+jI1o9b6GYzKJSyGpzoJS7GjaKGvKW8twVtW9SgCd+WFR0K299Bv9ANdF3UwPaQvnvoqtptO3prpQ6nVMMzcvXB7672IZ/4W1Qpdjlrvfprq7a9rQeXHDBBba7rhAc5EGVhn4of0qh2B9b/DnAcCnm0ki9T3Re0j+t0A8rhIIDf0taf9cyHXEW2yDR3/DIfxZVnMXuPMvFfxa1+dBGJsUsK/HvC76/1HnpHLq/cqWYeSkg0zMjFNT5oo27mODggQcesJ/hnHPOsac7ilkPyk2nXvSZfNucYpe3KJDW+8NFAVah1PZIOxMF95qHTjmpPUOxD15Sw2Qd7fvTeqU2SBSl33VkXOyDicpF67e/4kRXSOkz6hTmdtttZ4cVwn+/4PcMdhfCv08PzdJBjZQyL+3Ag9thsfPy79WttHUAWcx6UAqCgzz5yxe18Rf7Y4vOH2lHEKSAwZ9XKoQa1emz6FIq3U9f3X7HVwi/ofoieqCNdjaF0vk/Pw//flV6xd5rvlz8Z9KOwT/Jzw8rlN6n5Rx8f7HzUgM2fy93FR0xFjuv8PvUsLCYeyZ4OprW6abmzZu7IdHyDwZTyrfYZSRqQxS+ekZP5NN9Joqhz6Ki9d13F3OzGjUg9O/3z9tQJq+YSxAVCPhTFKIdluYbJTU+1A7HnzfXFVb6TMVkyvS+cm2Danwb3AbD8y2ELm3VVQ9Bxc5LtF9Q3a6sBsFBPaf0eCk/tujJX0G6eqHU29yW6xSHXHHFFa6rNLrxSrEPpyo3ZS+Cp27eeOONohtoXXrppbb4O+qpcVz42Rv50s1WdN8LpaN9d9TXowdpvdKphfpEVyuUug2Gg2jdX6LUBntqcxB8mmUpdFllOe4qqoaI5brFdDko4Aw2qlMbKZ2+KpQenqZtUNuLqHFqMVd8ibI1yhopi6F6Qt2690h9otML5Vq38kVwUCQ1XCnm3gSZlNI61iu1svR05K8jznLQEZru7IVoKDDTaYFyUGVcH+6SGKSj82LvZBemS21LDQ70jADdKK0cdG18Oa4u8M/YQHTKdbAl5ZxXTQgO8qCNVGlHpaRV1K1z6MUcFSu6Dc9LDdtKbR1brgrAX09eDrq0qNg7B6IwShvr5j7BorYCxbQ50HodnpcakEV5EySdHtH9CYLbje5Ep9NfhdJ6qTueBufVtWtXe3quFGr3U+wtfMN02sPfFKsUBAd1K7zdqBS7/Ms5r2IQHOThxBNPtM8eUCtkna/Wq1qz6jK0QqkS0k02gvPSZUelXM8MqEGi7tan1vO+qHFpMcGBKiCdgw3OK+rgQG1W2rRpk7bd6Ohal34WSkdfCu6D89LNh8Kn+4BCadvRzbSC206xO3S9T3flLce8ikFwkKfwj6KGWro/eDHC89I91cuVHkV8hdcr3fWymAaJmY421R/1I5vDn0nnqvfbbz/XV5jwvHTuuphLGYEgNUgM7xfC61q+1EA1fNBY7LyKQXBQIJ2bLKYlcia6prmuG5kAlU7ZkHKcjxc1JC32TotAQ0ZwUCA1OirXlQG6hIaMAVAY3Veg2OdihOkUg+7nACAdwUGBdCcuNYwqB13fqysVAORPpxN0M6ty0OVwaqsBIB3BQYF03bBKOfiH2gDIn7a/cm075ZwX0JAQHAAAgDQEBwAAIA3BAQAASENwAAAA0hAcAACANDY4WHXVVe0T9CgUCoVCoVD0bJb/S/hNt2WkUCgUCoVCSZQ/EuX/fllqqaX+bNKkiX1YC4VCoVAoFAqFQqFQKBSK8gTKF/zf//3fIiUPbPuDhQsXutYIAAAAAAAg7hYvXmyaN2/uWx/8n9FFjT/++KMbDQAAAAAA4u6nn35K3uyA5AEAAAAAAMiE5AEAAAAAAMiJ5AEAAAAAAMiJ5AEAAAAAAMiJ5AEAAAAAAMiJ5AEAAAAAAMiJ5AEAAAAAAMiJ5AEAAAAAAMiJ5AEAAAAAAMiJ5AEAAGVyyy23mHPOOSdVvv32WzcmWr/++qu59NJLU5+rT58+Zt68eXbc4sWLTd++fVPj/vnPf5qff/7ZjqtPZsyYkfqMKtdee60bAwAA6gLJAwBA7D344IPmwgsvrLHMmTPHvSOz7bbbzu9Qbfnoo4/cmGgtWrTItGzZMvW5VlppJTN9+nQ7bv78+aZFixapcSuvvLL54Ycf7Lj6ZOzYsanPqLLJJpu4MQAAoC6QPAAAxN5ee+2VdmBaUznqqKNSZ+6D7rvvPnuG35cpU6a4MYVbY4010v7n6NGj3ZjC/fbbb+bGG29Mfa6rrrrKLFiwwI6LOnnw9ddfp31PxSF//PGHG1tFnym4bG+//XY3BgAA1AWSBwCA2AsnDz788EM3Jumhhx6yzfnXWWedtOk+++wzN0XSo48+aq677rpUmTZtmhuT1L9//7Txvujg3rv//vvtsOABvcr5559vh19//fWp/fSff/5p7r77bjv8hhtuSCUE7rnnHjtMCQN/CcIdd9xhh6ncfPPNqeHh5MEqq6xih8t///vf1Htuu+02NzTdL7/8Yufnp9NBvS6T8DR/fQ4//s4770wN//e//22X69JLL536/wpKdEmCplUyxps9e3ZqHipaTpnofwen8+Wxxx5zU1SnJI+fTr+R6PMF36/yzDPP2HEAAMQRyQMAQOyFkwevvvqqG5PuP//5j1lrrbXSph06dKgbW/2yhY8//tgOHzBggD2jHxwXLiNGjLDThuefqYwbN85O+/vvv5s2bdrYYcstt5y5+OKL7Wtw2qlTp9pp871soaYSTiLMnDnTNG3aNDVeLSaC90zQgfnyyy+fGq8EjHz33XepYdmKPpeX67IFtUpQciU4PltRcuSpp55y70x69913U+M7dOhg/v73v6e9J1jWXHNN89xzz7l3AgAQHyQPAACxl2/yQHbeeee0ad9++203pnry4JNPPrHDt9xyy9Sw8H0TrrzySnPSSSdVu8RBB7HBeekgPSyYPAgW7dyDFi5cmHfyQMmHU045xY7zTj/9dNO4cePUNMsss0zqfxSTPFiyZIkba8zcuXPNsssumxq/4YYbujHpsiUPFLPoMgY/3LdcCNL/OPDAA1PTtG7d2gwePNiNTU8eqOg73HrrrXacltO+++6bNr5bt252HAAAcULyAAAQe7WVPPAtD3RwGzxAVrn88stNv379bMlk4403TpvetzYICicPGjVqVC1xIKXeMFEJj2bNmqWmad68eeqeD6UmD7755pu0ZbPBBhtkvOdBtuSB7gURHL755pvb4WG6eWVwOv1WXjh5oN84SK1LguNJHgAA4ojkAQAg9vJNHgwfPrzaQf2wYcPc2JqftnDBBReYQw45xJallloqbVrdsyB4E8ZikweTJ092Y6uQPCB5AABAqUgeAABiL5w8eP/9992YJLUgeOGFF8ymm26aNp1vWeBla3nw5ptv2vfrBodBW221Vdr0o0aNcmOqJw/8wX5QbSQPVlxxxWr3BNCNAps0aWLH67KGQw891N4oUcLJAyUZhgwZYseJbiIZvA9DTcmDdu3auTHpsiUPdO+EYGsQLQ8lA4KUjNBNHf00q666qr1HgkfyAACAmpE8AADEXjh5UFPZbLPNzIQJE9y7q4STB/6eB7qOPzg8U9F9ESZNmmSnl+OPPz7jdCrjx4+305Q7eaCD/G233TY1Xaay3377pRIHovsJ6GA607S+aLnoPgnqDicP9Dl22GGHau9RWXvttd1UuW+YOHHixLT7SuQqerLDmWee6d6ZRPIAAICakTwAAMTeeeedZ3bcccecZcyYMW7q7E499dSs7zn55JPTxvny/fffuykyO+qoo9Km14Gtf4/OqKsVgB/XpUuXjC0UdLB+0EEHpabbfffdUzduVCJg//33t8P33HNPe3NF0U0C/fQq++yzT9ojJcP0vj322CM1vf6fN2vWLNO1a1c7/OCDD057lKOn2EPfzb9f5YgjjnBjjU2KBMcdffTRbkw6tUQITudL+CaQQSNHjkyb9owzznBjkj799NO08XoaAwAAcUPyAAAAAAAA5ETyAAAAAAAA5ETyAAAAAAAA5ETyAAAAAAAA5ETyAAAAAAAA5ETyAAAAAAAA5ETyAAAAAAAA5ETyAAAAAAAA5ETyAAAAAAAA5ETyAAAAAAAA5ETyAAAAAAAA5ETyAAAAAAAA5ETyAAAAAAAA5BT75MH48ePNbrvtZs4991w3pMonn3xidt1114xF7+nbt6+b0phPP/3UDvPjr776ajcm3XvvvZc23Y033ujGAAAAAABQP8UyeTBmzBizxRZb+C9tS9euXd3YKrNmzTIvvPBCWnn55ZfNDTfcYN9zwAEHmFGjRpnNN9/c9nfs2NFO06dPH9u/8sorm+uuu87O66233jKbbrqpHb7VVlvZ6c4++2zb36xZM3PLLbfY6QAAAAAAqG9imTyYOnWqGT58uO1WiwF97y5dutj+mrz++ut2+t133932Dx482Pb37NnT9ntKMgSHDxgwwPb37t3b9nuDBg3KOBwAAAAAgPoi9pctDBs2zH75mpIHX375pdlxxx3ttLrcwPPJg+7du7shSQMHDrTDw8mDXr162X6vX79+dnipyYOXXnrJtGzZ0s6LQqFQKBQKhUKhUCjxLZ06dTLTp093R4vlQfIgj+SBLk3Ya6+97HThyxuytTz43//+lzbcJw+OPfZY2+89++yzdnipyYPbbrvNzkdFrSLuvfdeCoVCoVBiVS655JLUvnCdddbJOA2FQqFQKA213HPPPaZFixZ2P7jsssuab775xh0tlkcskwcTJ040Z511li0HHXSQ/fI6a++H/fe//3VTJu+PoHsbaJpddtnFDa2iH0QH/hrfvHlz+34dvKu/TZs29vIF+eqrr2yrAw1fY4017HQ777yz7d9oo43Ma6+9ZqcrVjB58Pe//90NBQAgPj7//PPUvlD3NgIAIE7++OMPs8EGG9j9IMmDMpkyZYq96WG28uSTT7opjZk0aZIdphYGucycOTNtHmp5kEn4f7/xxhtuTGlIHgAA4o7kAQAgzkgeIC8kDwAAcUfyAAAQZyQPkBeSBwCAuCN5AACIM5IHyAvJA9SFhQsXmjvuuMPcfPPNtuimLL/++qsbW7l0OZH/Tip6WgqAykPyIN705KlgXT5+/Hg3prI98sgjad+LOB1ANiQPkBeSB5VP99q4++67U2Xu3LluTNKff/5pnnjiidR43VF1/vz5bmxuv/32m30saHD+mcpDDz3k3pHZDz/8YFZeeeXUurb66qubBQsWuLGV680330x9J5XwU1UAVAaSB7Xnk08+SdtffPrpp25Mug8++CBtOj3quiZvv/122nuyFSV6c/E3pvblqaeecmMq28Ybb5z2vcaNG+fGAEA6kgfIC8mDynfhhReaVVZZJfU7XnfddXYDFSUOnn766dSjV5Zaain7GNBZs2bZ8TX5+eef7VM+/LzzKffdd597dxUlK0499VT7hBEVPTVk0aJFbmz9895776V9JwVgmSgQ899JRcseQOUheVB79GjpzTbbLLV89bSqcGJACYZ99903Nc2WW26ZeupULmeccUbqPfmUo48+2t6oOuyuu+5Kq8s/+ugjN6Z+Wn/99dO+l5ZfJooPgt9r2rRpbgwApCN5gLyQPGgY9Ns1bdo09Vv+5z//sQfsenqHP/hX4mD//ffPGDhlE04eqPXAkiVL3NikE044wRx44IFmueWWS02nSkeVkLd48WIbQOpsjsrzzz9vWzWILml45plnUsM9JT007MUXX0ybl6dLBPz8VF555RU3Jrfge3wZOnSoHac6TP3XXHNN6ruotGvXLjVt8EknSsL44SrDhw93Y9JpOQan80Vn2rLRmTI/3bvvvmuH+c8XLDroAVAakge1S3XVJptsklrGhx9+uH2ktYwYMcJ07949Na5jx47mhRdesONqEk4eqKVc0IMPPmgT5uutt17adGqNF6S6OFivfv/9926MsfVvePiHH36YGpbpgFwJaD/el3wS5mrNFn6fit8Hvvrqq7a/devWad9HT+Hy0/qTB6IYwA9XydbqUIma4HQq2gdn8/vvv9v9tabT/tvvz/W7Befx3HPP2eEA6j+SB8gLyYOG4/TTTzdNmjSxv+Uyyyxj7rzzzlSAocTBHnvsYWbMmOGmzk84eaAERabkwy+//GIOPfTQtASCuv0lFLpsIZjcUEsIf9nC1KlTzQorrGCHr7nmmvbeCH46FbWqUGCiJIPulRAcFy5KbmQ6gFfAdMstt2R8jy9bb7112gFEtrLpppu6uea+bEGJhUsuuSRtfLaioFrBaJACMj9+7733Npdeemnae4Jlm222ydoUGEDNSB7Uvscff9wmYv1yPvLII+2+4frrr08NUyuvQYMGuXfULJw80CUKmSih3qpVq7RplVjwcl220KNHj9Twq6++2my33XZp0/oD5Pfff99suOGGaePC5fLLL7fJ9DBdfrHOOutkfI8vn332mW2RkWlcsAQTyrkuW3jttddSMUNN5YEHHrD7YE/7fO2vNU7z0HJv3Lhxtff5MmDAgGonHgDULyQPkBeSBw1LuAWCSjEtDrx8kweiRIHqAT+tKgh/BiTXPQ+UPFhxxRVT41RWXXVVO85T0KIzSksvvbQdr2Dl3HPPdWOTn1Pf079/7bXXdmOM/T/BpIO+gwJOT2eN9txzT3Paaae5IcaMHj06Nb3Kjjvu6Maky5Y8mDNnjr2EwQ9v3ry5PfgPGjlypD1I8dNsu+22aUFfMHmgomWms0uis2Q6Oxccf9RRR9lxAApH8qBu6AZ+4Sb3viixUOhNZ/NNHoia7Qen7d+/vxuTf/LAlyFDhrixSUredu7cOTV+l112MdOnT3djTdolGSqvv/66G2PsJRLBVhlKBk+ePNmNNeZvf/ub3UcFD/y32mqrtPl9/fXXbky6cPLA3wjyrbfeMmuttZYdpn1nly5dqrVK0CUeyy+/vJ1GBxJK/vjWE0oe+Per6ISFktzeIYccknYyQft07RcB1F8kD5AXkgcNS5s2bVK/Z7jUdvJA2385kgc6+xKmQEoVmZ+mprLRRhu5dxozatSotHG69rYmCuaC79GZpkyyJQ90aUNwuAK/THRJRnA6Nd31wskDNb0NUrPb4HgFegCKQ/Kg7ugsdvgsu1rJ6eC0UFEkD3QpQJgOnIPT1FSGDRvm3mnMTjvtlDZOlzzUJJh4Vvniiy/cmHTh5MGECRPscH+AoKID/0wHCXoiUvB3UssCf+PJcPJACf1gbKBEhJLmfnyzZs1IHgD1HMkD5IXkQcMRPpszceLEtCaiKrV12YKuf1QwFEwQKNAIXraQb/JATUvDzTqVPGjUqFFqGs1blxnoDE2moksovPqcPND1ocHpdO8Ir6bkgQLt4HiSB0DxSB7UrYsvvjit/tKlC8XIN3mg/WH47H/wKUGFJA8GDx7sxlTZZ5990qZRAjvTvsmX4GVmO++8c9p7/T1ucik1edC2bdvUMCUPtHzCdJlBMHmgVgi5kgfB+GLevHkkD4AKQ/IAeSF50DAoUPG/o8pXX33lxpi0HbxKIQmEcPJACQAFDUFqfq8mkMHLJXRwr+DBKzV5oArMj1fRZQljx451Y6voDt7hR1EpWAouHyVUgstHVGEG5xdOHhR62YLuXxA8s7P99tunNUMVndXRdbh+Gt3bIbgNkjwA6g7Jg7rVt2/ftPqr2CfVhJMHDz/8sBuTpMvS9Nvq0r1c05WaPFDdH5xGT2/QfiVI+wDto8L7UN10eKWVVkq9V59NT0oK0j4reFlBOHkQ3qd54eSBv7zhgAMOSN2jQJcDqhVcmD6r3//r0oZOnTqlTh6QPAAaHpIHyAvJg8oXvFZSJXxQrcqgZcuWqfGqEILXYuYSTh7kU3RDp2DiQEpNHojOeATPlmQrwfsdeDqrsu6662ac3pf27du7qZN3/8528yolArxcN0xUAiGcuMlW1KoieB8GIXkA1B2SB3WrtpIHNZXVVlst48F/qckDOemkk+xZ/OC0mYpuVBime9YE79uTqeiGjF6m+zD4ov2Xl+uGiXvttVfauFxFCfhgq0OSB0DDQ/IAeSF5UNnUVFKXK+heByo6+xA+YyE6y60bOPnpdKCsg/aaKEBQE0v/vkxFlwHMnj3bXrqgkonqBt3gz79Hlxz4sy8KOJQA8eN22GGHnHdlnjRpkk0i+Ol92X333XN+BtGNEMPvU9FZqUzvU9PS8LS6EZSnBEFwnO4eHqb56pKO4HS+6IyTxmf6zXRdbXDaM888041J0mOyguPPO+88NwZAoUge1K2bbroprf7Kda+CXC677LK0+WQqTz75ZI37hnPOOSftPcEbIupmusFxmQ7+PdXlurdCcHpf3nnnnaz1vShw1/4l03u1fobfp+l1KUZ42mCCQJfMBceFL0/QPLS/DcYHvujJEd99913G5aabGOtyPj9thw4d7EkCTycHdCLBj1erBX8ZI4D6ieQB8kLyAAAQdyQPAABxRvIAeSF5AACIO5IHAIA4I3mAvJA8AADEHckDAECckTxAXkgeAADijuQBACDOSB4gLyQPAABxR/IAABBnJA+QF5IHAIC4I3kAAIgzkgfIC8kDAEDckTwAAMQZyQPkheQBACDuSB4AAOKM5AHyQvIAABB3JA8AAHFG8gB5IXkAAIg7kgcAgDgjeYC8kDwAAMQdyQMAQJyRPKhlkydPNj169DCXXHKJG5LZV199ZQ466KBUufrqq+3wjz/+2L5fJThe5YYbbrDTBH366adp09x1111uTGlIHgAA4o7kAQAgzkge1ILx48ebHXbYIRVgqHTt2tWNTTd8+HA7vnnz5ubxxx9PFQ2XwYMH2/GdO3dOG6/y9ttv22nkvffeM1tuuaWdtmPHjnb8iSeeaPtXW221kpMIJA8AAHFH8gAAEGckD2rBt99+a1566SXb7QONLl262P6gIUOG2HFHHXWUWbRokTnuuONsuf32290UVcmDddZZJzVe5b777nNTJA0YMMBOd+yxx7ohSYMGDbLDe/fu7YYUJ5g8uOiii9xQAADi48svv0ztC5XUBwAgbkge1KJhw4bZL58pefDqq6/6BWOaNGlikwa+tUCzZs1sa4FJkybZ4cFyzDHH2GnUouD++++38/LJg169etl+r1+/fnZ4OZMH4dKiRQvz4IMPmokTJ5qRI0dSKBQKhdLgii5DHDhwYGrf1759e9vScPTo0Rmnp1AoFAqlIZUxY8bYJHqrVq3sfpDkQS3IJ3mgexME6cfR8L333tsNqe7999+30/Ts2dP2Z2t58Oyzz9rh5Uwe7LzzzubGG29MFSUopk+f7qYEAKBhGjFiRGpfSMsDAEAc0fKgzHR2om/fvrbokgR973XXXTc17IEHHrDTaWEfccQRdrwWksYpkaD+Nddc07zwwgvm0Ucftf3+vSr77befHaaszzPPPGPnpTMfBx54YGq4pttzzz1t//rrr2+ef/55O12xuOcBACDuuOcBACDOuOdBLQgmDzIVnzzwZs6cmTb+iSeecGOSpk6dmjZexScNwnSZQ3A6JSDKgeQBACDuSB4AAOKM5AHyQvIAABB3JA8AAHFG8gB5IXkAAIg7kgcAgDgjeYC8kDwAAMQdyQMAQJyRPEBeSB4AAOKO5AEAIM5IHiAvJA8AAHFH8gAAEGckD5AXkgcAgLgjeQAAiDOSB8gLyQMAQNyRPAAAxBnJA+SF5AEAIO5IHgAA4ozkAfJC8gAAEHckDwAAcUbyAHkheQAAiDuSBwCAOCN5gLyQPAAAxB3JAwBAnJE8QF5IHgAA4o7kAQAgzkgeIC8kDwAAcUfyAAAQZyQPkBeSBwCAuCN5AACIM5IHyAvJAwBA3JE8AADEGckD5IXkAQAg7kgeAADijOQB8kLyAAAQdyQPAABxRvIAeSF5AACIO5IHAIA4I3mAvJA8AADEHckDAECckTxAXkgeAADijuQBACDOSB4gLyQPAABxR/IAABBnJA+QF5IHAIC4I3kAAIgzkgfIC8kDAEDckTwAAMQZyQPkheQBACDuSB4AAOKM5EEtmTZtmundu7fZddddcwYZI0eOtNNtt912fiHZ0qlTJzeFMV9//bXZYYcd0sZrOd57771uiqTRo0ebbbbZJm26Fi1amIcffthNUTySBwCAuCN5AACIM5IHteDZZ5+1X/jOO+805557ru3u0qWLG1tlzJgxZr/99jMbbbSRGTp0qBuabuDAgfb9m222mXnjjTfssNmzZ5uTTjrJDt9zzz3tsEceecT2b7nlluatt96yw6ZPn24TExreo0cPO6xYJA8AAHFH8gAAEGckD2rZsGHD7JfPlDx49dVX7bgNN9zQJhHcQrLLSMkAee655+yw7t27237PJxV69uxp+wcMGGD7e/XqZfu9fv362eFKIpQimDxQwKQEgi///ve/zeTJk92UAAA0TCNGjEjtCzt37uyGAgAQHyQPalE+yYO2bduaQYMG2WFqVeBbCxx44IHmzTfftN31KXkQLro04oEHHjATJ060l2FQKBQKhdLQyqRJk1L7XpX27dubcePG2UsGM01PoVAoFEpDKmo1/+WXX5pWrVrZ/SDJg1rgmzh269bNDany4osv2nHK3jz99NN22KxZs8zRRx9thyt58Nprr9luXdqgVgii+ykcdthhdnj4soWOHTuaIUOG2GFqDXDwwQfb4eW8bOGiiy5yQwEAiA9aHgAA4o6WB2X2yiuvpIKLTEUL3JsxY4Y54IAD0sZrgfXv399NYcz3339v9t5777Rp1lhjDfPkk0+6KZL04ylJEZxOmSHdg6FU3PMAABB33PMAABBn3PMAeSF5AACIO5IHAIA4I3mAvJA8AADEHckDAECckTxAXkgeAADijuQBACDOSB4gLyQPAABxR/IAABBnJA+QF5IHAIC4I3kAAIgzkgfIC8kDAEDckTwAAMQZyQPkheQBACDuSB4AAOKM5AHyQvIAABB3JA8AAHFG8gB5IXkAAIg7kgcAgDgjeYC8kDwAAMQdyQMAQJyRPEBeSB4AAOKO5AEAIM5IHiRMnTo1Y5k9e7abAiQPAABxR/IAABBnsUseKCHwwQcfmFVWWcWsvPLKplGjRqlAIFNZccUV7bQ77rijfe+8efPcnOKF5AEAIO5IHgAA4iw2yYOvvvrKJgL0GZZffnmbOOjcubP54YcfcpZhw4bZaZs2bWqWWWYZ+/5dd93VzTU+SB4AAOKO5AEAIM5ikzz47bffzJQpU8zMmTPdkOKUYx6ViOQBACDuSB4AAOKMex4EKMGgMmLECNO6dWtbWrRoYTbaaCM3RXyRPAAAxB3JAwBAnMU6eaBLGTbccEPTrl0707Jly1RAECybbLKJmTx5sntHfJE8AADEHckDAECcxS55oC/Ytm3b1M5fZf311zdffPGFLU899ZQd1qlTJ/cOCMkDAEDckTwAAMRZ7JIHY8aMsR9GN03s2rWrLSeddJIbWzW+Y8eObgiE5AEAIO5IHgAA4iy2ly28/fbbtjz88MOpQCBY9GSGE0880U0NkgcAgLgjeQAAiDNumBjy6quv2nLHHXekAgTdFyHuSB4AAOKO5AEAIM5IHtRgyZIl5s0333R98UXyAAAQdyQPAABxFpvkwciRI1M7/J49e9rSp08fNza72bNnp6bfZZdd7PvXWmstNzY+SB4AAOKO5AEAIM5i1/KgX79+5qqrrkrt/PMt+tx67yuvvOLmFC8kDwAAcUfyAAAQZ1y2kHDvvfdmLM8//7ybAiQPAABxR/IAABBnJA9qiS53OOecc8wBBxxgv3ynTp3cmCovvviiXzDVymabbWanefrppzOOV9l2223tNN7XX39tHz0ZnKZly5Zm4MCBborikTwAAMQdyQMAQJyRPKgFzz33nP3C1113nTnllFNsd5cuXdzYKnqqg8b16NHDDalu8ODBdpqjjjrKDcnskUcesdNtvvnmqUsrvvvuO3PYYYfV+D/yQfIAABB3JA8AAHFG8qCWDRs2zH75TMmDbC0PWrRokWotoNdM06hFgZIU3oABA+zwXr16uSFJuk+Dhvfu3dsNKU4weaAWD5deemmq3HXXXWbKlCluSgAAGqYRI0ak9oWdO3d2QwEAiI9YJQ8++eQT+0WvvfZa8/DDD7uh1f3666/m9NNPtx+8devWbmjhciUPMpk2bZo55JBD7Ht22mknNzTdt99+a7p3726n2XPPPe2wukwehIuSHQ888ICZOHGifaoFhUKhUCgNrUyePDktod++fXszfvx4M3r06IzTUygUCoXSkMqYMWPMl19+aVq1amX3g7FIHsyYMcMeYLsPZBo3bmwPvEXNMM4999zUOJVGjRqZG2+80Y4vhm/i2K1bNzekioKOQYMGub4kLZuTTz7ZvmePPfYwEyZMsJcuBM2cOdMcd9xxdhqfPPCXLagZ5dChQ+2wqVOn2ssdNLycly1cdNFFbigAAPGhoMnvC2l5AACIo1hetrBw4UJz0kknmQMPPDAVCPiyzDLLmGuuucZNWTh/L4NspV27dna6sWPHml122aXa+FVWWcXcc889dhoFKjvssEO1aZo3b24efPBBO42n+YWnXWONNUz//v3dFMXjngcAgLjjngcAgDiL3T0P9IHUlN+Xxx57zNxxxx32A6677rpmyJAh9kx/cBoNizuSBwCAuCN5AACIs9glD0aNGpXa8edb2rZt694dXyQPAABxR/IAABBnPG0BeSF5AACIO5IHAIA4i13y4Oeff7b3JCikfPDBB+7d8UXyAAAQdyQPAABxxmULeZQNN9zQvTu+SB4AAOKO5AEAIM64bCFh3Lhx9gN26NDBDUEYyQMAQNyRPAAAxBnJg4QJEybYD9ixY0c3BGEkDwAAdWn4cGMOPtiY9993A+oBkgcAgDiLXfJg7NixqR1/vmXLLbd0744vkgcAgLqg2wxttJFJ7G+qinL7ieP2yJE8AADEWWyTB40aNTKtW7fOqxxwwAHu3fFF8gAAUFsSsYhNGujqwcRuJmvp3DmZRPjzT/fGOkbyAAAQZ7FNHmyk0xrIW31OHixaZMyvv7oeAEDFUTLg3XeN2WwzY5ZaKnPiQEUNAT/6yL0pAiQPAABxFtvkgb70Dz/8kFeZO3eue3d81cfkweLFxlx8sTGNGhmz4orG3H23Mb//7kYCACrKO+8Y06ZN5qTB5pvXj3sfkDwAANQlnSStT7jnQR6lffv27t3xVZ+SB2plcMUVxjRuXD3AXHVVYx54INkEFmiIaGWDhmbmTGO6d6+qx1u2TN4s8eWXjdl6a2PeeMNNWA+QPADqB51AAhqyhQuNOf745EnStdc25tVX3YiIxTZ5sP7665vp06fnVWbPnu3eHV/1JXnw4IPGNG2anjDIVNZaq/5sZEA5DBmSXK+VNDv3XGN++82NACqUWor997/GNGmSrLeXW86Yyy+v3wcFJA+AaE2YYMwOOyQPqLp1M2bqVDcCaCCWLDHm1FNN4sC8+vFN4vDVJtejFLvkwZgxY+yHUfIA+atPLQ+0ozjyyOoblC8HHmjMt9+6iYEKp7OumZpyK4lw4YXJJAItbVBpxo1LvznijjsaM2mSG1mPkTwAovHdd8bstlv6ftAX3ddcLZiASnfppclEeqb1PFh0fyDtR6MQu+TBkiVLzFdffZUIUiogSqlH6uM9D5QgOPTQ5EakA6lmzYxZZplk/+qrGzNokJsQqDA683r//cnm21qfayrKTq+8sjHNmyebtul+sPvsY8yVVyZb4NB4CvWFzqicfbYxSy+dXHdXWcWYAQPcyApA8gCoG0qKjxyZvLeVrh72+7tcRbHfxhsbc8wxxtx+uzGffhrdk1mAYqmVdYsWmdfx5Zc35qabkpc0RCV2yQMUpz4mDzy1RPAHR7oLt+7GnfiYtuy0kzFffJEcB9RHc+Zo+0pe273GGpmbqWUrnTol3/vvfyeDpT33NGbddTNPq6IEg1ox6CyNAis1/wTqyuuvJ5Nbfn08+ujk+l9JSB4AtWPsWJOIL41p1y6ZVPT1RLBkexKL9m3bb5/ch2Yar0uj1OC4Z09jnnkm2gMvIJvPPkset/j1VskwFXUrNrz2WmN++cVNHCGSB8hLfU4ehOmGcrqOVmdhEx/Xtko47zxjeGgG6oPp04257LLk2RF/rbcvCnzOOit5fwM1R0vUn9a8ecb8859V0+l6T+1kctHZlh9+SM5H18ddfXXVdaLB/6miDLcSEbrGbtgw7qeA8poyxZjdd69a35RA0JMVKhHJA6A8vv/emIsuSrYqCN8Au0uX5D5LLQdUf/hL8/Tar59JHFgkp9N9gAYOrN66YMGC5PwTm6u58cbk/ILzV0kcjtjLpe64g/gQ0VILm+AlOf7m7z4W++qrqniwPiB5gLxUUvLA0xmto46q2hiVTHjiCTcSqCMKYnSWX0FKOFmgywtuucWYESPyOxOiZMCYMa6nBLosQlduvfVW8gZ1HTumfy6VlVZKfr4ePZKXUGS7j8hLLxnTunUyiOvf3w0EnAsuqGpNo+s4b765spsR18fkgVrcaRtebbVkfQLUV88/b8xee1Ud/PuiAyddvjR5spuwBtqHffll4YluJQk++cSYvn1N4uAn/TPo0tdttjHm+uuNmTHDvQGoRWpts/feVeugElr33JO8vK8+I3mAvFRi8sDTGVrFeImPbstWWyWz0UBtee01Yw4/PL2Jtsqaayav39TZlPr4yEUFTB9/nNx56RIIf9AXLGpCp0uDNH7DDauPb9XKmKefdjNEbOlsYHD9P+ywhnFDs/qUPNAleTrY8cvYFx2Y3XWXmwiIkJLiuqxON3cLrqNKdOnGcEqcR0mfT/HgDTdUv6+Ckv26nFD3Dsr32EhJ+XvvdT31hOINEvv1iy4Z1eOJ/WU4K6yQTPwuWuQmqOdIHiAvlZw8EJ3puu++qhuQ6MaKaqI9a5abACiB7gKtMxnhM/i6RODYY5PXeldqtafgatSo5KUUOiOz+ebp3zFbUQZ9112TB43nn59sGqrloOZ5dXFW56mnkvd/0B39333XDUSt09lAJWj9erDJJpV7iUIm9SF5oAOuTEmDcFESQa2GgLqk/YXiq/BTgnQt96OPGjNtmpuwHtJlEdq+br21+r5O+3Pt43V/occfT78Rse69tf/+VdMq8aDr06Okuni77ao+k+JfNYVHdNTSQE+E80kDXa6juKrS7sFB8gB5qfTkgafK/swzq57KoOBKWWLuxosgnSFVc321FLjmGjcwQPctUIWvppbhGzt17WrMQw/l3/yyEun6O910Mfi9g6VpU2PWWy/7za2CRdPoEgnd70HBpgK2bbc1Zo89kr+Bki9KzOjsj+5APHiwMW+/nczcZ0pCPPts8n+H/0/nzsnm3agd2mb0hA+/vFW3PvmkG9mA1JeWBzpYOf749HU8XHSwoCcSaZvQQRFQjEceyX1jUzWx1jTduqVfmqc468QTk/fcqZQzqpkomXDnncnkQPjeDGqdp0R5cFiwKD5Qy4tcdNyleEFFlweOH59MtGu71f5Orzr5pXsl/etfxlx1VTIhr/1jsOy3X/LySBXddDLT51FRXKOWFvq/up8Sap/WIV2u438DrTOKIX/+2U1QYUgeIC8NJXngff21MbvsUrUh69ru995zIxFb4ftk+KJrIXv1Sq4zK66YPk5ntpVg0HWUcaP7L+jyBb8sdJYj0wG6AkedbdIZKW1nuqxDlzboLIgCIVUpWr5KGOjMjh5RGV7O5Sq65EI36dKO+7HHjHnlFWNeftmY0aOTn1GtSGrzCQBKgKhFhA60G0KCScuqd++q5atkkJpf1sfLcsqhvt3zQDeFO+KIquWvlh460FDCTU3D/XAV3W1eZ011n5K40yNseRJTbtqvBZMBJ5yQPNhRIkqJwUMOqX5pntax665L1vUNle5jpP2YtjPts4LfP8qipu+6bFCP8ss0vqai9+neYJtuaszOOyeb1asFiepz3S/s/ffLm2z44ANj3nzT9TRQ+o7BmwUrlqykyxOyIXmAvDS05IGng4Zg0zqdNdZZVcSLMv3BADxX0c5VWXvdG+D3390MYk7XVNZm03QFq3o8kVp86OkRCvr1VAglIRTEqmm2mpmefbYx66yT+XcrteiMkxIaOqOuAFn3e9ATKlRn6IzbQQclW0ko2NJdwhVY6uZgSiopIaH7SOiMT3i+ep/uJl5pdOOxk05K/y66OaIC64asPt4wUVSH6YA4TMkd3X9CCR618An+Xkqan3xy8ixnXPzvf8a0bVu1DHSQpEupoqYz94pF1KQ56vpANzXVow+D60q2ovr2nHOSCalEvB9LatF6xhnVl40/w69LNbSPylQ0TvsxbbsqSma/8UZyn6p9nZq5a9tWKzs1bVfyJp/ErBLTSu6EP5P2W0qaK8mv/6N9lFpK6qbOSqrr8blq+ZdpXxUsShLrJslq0adWD/r+Wm90eaM+by7hR6rrBIxu3tyQvPhi8nv576ikjk4cNJSYkeQB8tJQkweiAxNVnjrbmfh6tijjyjPwa5+Wvc6Q6UysmuSVmwJnnR3XDlmP77zkkmQzSjUf0xm6Qs5u6ywel7hUBgVFwftP6PKS4I25dIduBWEKyBSc6SyZbqyqIO6FF5KBsO78rZvOKahS0Y0uTzst+ShNXbKh63fVEkVPmlBCSWcUgutLoUUBmJIM9d38+clLv4KXpJx7bnyav9bX5EG+lIDTzdN0Q9fwGUqdcdRBwHPPJe9m3xCovlZyQPV/+IZ4waLtWd9dCUBt32oZpLug654tSghqnB6Xq7OGasKufYEOlHTmVM3yJ05MHkQWej2/7s0SjD180e9TrnvD6KBe81JMo0u+hg41ZtAgY+6+25grrjDmlFOSMU/4poa5ihK1cU0WZKNlrJaLumxPyeP6ECvoN9e9h3SjY23XxdBTnpQQ0AkC7Rdvuim5PSiOynTT5GDRpVNar/bdN7meBe/BEC6qTiu9BbCSgMHLJvWdlKBpaEgeIC8NOXng6WBCTaj9Ney6lu3007mpYm3R2dlw8KqDeTUnD1MSQJeaaOeljK4y9roZ0XnnJZtS6myNrvNTplcH+UsvnT7fcNEzdBUoKzOv5MXDDyeDKh286f8EryXWQaECT1oZVB4F92pqWdeUnFDApTNHaiGhdTrTAUKmombCO+xgzN/+lrwpV305KNfBkRJvwW1L9WPcdueVnjwI08GuzkTqoCfcMkEHHLqcSAdCusdCfaU73D/zTLIu79kzeVbT3xy50KJrkZUMVAsjvRbbBDxYdBZfRQeVKvpsG29c/fr5TEVn9rWa6QBMRa2ddBYzOD9fNKzYz6v36/9oX6q6R8mBTK0PtM0HbxQIeKpL1CJTlyT+5z/J+EyJOJ2o0c0mw+tSpqJtQnG4TixVCsWMOqkQPBmlSxXUeqShInlQS+bOnWsuvvhic/jhh9sv30k1fsiLiaMgt2CqlY46beZMS2yR3bt3TxvfMhGJDlLqOGDy5Mlmn332SZtuvfXWs/+nVHFIHni68Zeyqr6y06sOJutz8JQvnZFV8++6pibOakanrLLO/udzxj+fm+2p6KZMCvR0VklZ7YMPTjbFVXJCLUp0JllnlQt9TJzqQjUza6jXbqPu6R4PujGkX3d1tk+tHlS36MZYat2ga2h17WpwHdcBgYbrppG1dWZGTdcz3fFZN+vafvuqz6Kkqg4slByJo4aWPAhTyxIF//qNM910TQewStiqbq0pXlSrLwXRSoaVek8YndXVOqqznrpcRo/Qy3agrM+tm8epRYymV2JBzaJ16VCm76TPl2+gr/2BktlK6un763upqPWBlpsSflo2ShjqrL4eR6ik25FHJhM0vugyklxnYVXULFzfU0/W0KuKnmSi76Z5qIl5cJ5+vqpH9L9V9Dn69UueMVYyVddg6/PqxnzaLyvRmY1uhKg6Z7nlkvfKaAiPWkW01KpPlzpkWt/DRftBtRrU5XA6jKlvTyRQq6Fgax3FtUoiVEILwlKRPKgFgxNRoL7rhRdemNhhHGm7u+rC2JBXX33Vjuuh9qpZDBw40E7Ttm1b86S7dfX3339vDjroIDt8T92tLOGRRx6x/RtvvHEi2EtEewkTJ040+++/f43/Ix9xSh54at6prxoM5I87LrnTrTQKHPxBi84c6gBegUEuCiIVsOn6cmWT1fRKq6Aeuaez/qrQlVRRUKHVW9fJ6WyKztaEn0BQaFFzcAWIiU3I3nxJLQO089BZZN2TQkEPUInUlFUtZxLHoDkpyad1vk+f9Ecf+qKzj0qSqQl6TdeY5qKDHZ1h1jyViNPlQzrYUhNT/1QaFTVP1bYf9xY4DT15kIku+VHrKz25QfW7Xyd8UessNWHWmX+tT9rfqJlyeDrdXyB4+ZCnA1hd56/6XTdmU52vS4S6dMl+OZBamKk5tpIcan7/4Yf5J3p1Dwid/dcZ0ShaJoXpMojgzS11uUQp2zRQ3+nSGd07SDfcVFLL04G39mmKvdWaNLgPUlE8rtYxeoJFbT2CWfvmbAkAJTBVDwZPbmk3oDovTkge1LJhw4bZL99Fe8GQbC0P1KrgJXc75Oeee84OU8uDIJ9U6Kk2egkDEmuu+nupjWFAv3797PDeSkeXIJg82CVxZHfzzTenSv/Elj5dR9oNlM4w6FpHNetLfH1bVHnpbHZ9l+16Sl/0WDydddEZDjXXzDRNtqLKU0kCBT1qKKMKVGeZdAM4Xa+pyl8HPqrkdcZVZ1Z12YHORungX3WNmkD6nYNaeCgQVNICQHVqnq0DeAUvmbZrJRR0hlPXZathms4w6ixpJjpLqu0+PI9gUWCngzg1y0TSiMTRr98XdtYptJjSwboOerV+KMgvZP9R02VlvqjJvkInJbK0H9G9axry2W8lQWpKKgJxoxYHSmirRbAS6eFWqUp+6xBHl1epBVGxCW69VyfB/Hx1YkzDdC8ktfIJJjJUN+lxmdonxxXJg1qUK3mQyXfffZe69ECtC958803bXZ+SB+HSokUL8+CDD9qWDiNHjmyQ5auvRiR26mPNuedOT6zQixPfO1mBrLXWInPZZVMTAeWYxPcfkZr+m29GJoL3iYkAa1wi8K4aXq4yatRIM378SDN58sjEOjPSvPfeONO//yRzxRVTzSGHzDHt2/+c+Hx/pj5n9vJn4vdbbLbbbr7Zaad5ifVsjjnssNmJgHCmufDCaea666aY+++fbOc9bNhX5t13xycqy1FmxoyRZsqU5P/+9tvk9504UctppBk3bqQZOzbz5w4WfQdNO3z4eHP22TPMW2+Nt99JwzNNT6FQkkXbjba9MWPGmMcf/8b8/e8zTLduc8266y5MbNN/hLbxYssfZr/9fjQffDAmsV2Wvw6rxKJLA/2+V6V9+/aJZTPejB49OuP0cSijR49M7ONGmmnTRpgJE0aZG2/83qy3ntbDTOuUrqNfYrbffp7Zf/8fzeGHzzYnnDDL/OMf08xVV01JxBGTzeuvf5WYz2gzffoIu3/TvPU/Mv1vCoUSn6J6QLHm5MmjzCuvfG369p1qdtttro1hw/Fu48a/mh12mGdOPHGWjdHvvfdb88ILE8z7748zn346LhFnjrEx7KxZI8yzz040nTotSHt/9fJnYv+6yBx33CwbCyf3v5k/Z0Mviju+/PJL06pVq8RyIXlQKz777DP75bvpWV4hWti6dCFo3rx5iQPUc+17lDx47bXXbLeaR77jnoWm5XfGGWfY4XuprWCCv2xh2223TQR7H9hhs2bNMieffLIdfrAuBC9BMHmgyzHiTvcO0E+aWBypoib8/rm1weylmnKW6z4DegyaMqG6hlF3PNfZ/uBn8EWPfFLTR53J192iM10bqmalugkagIZn7Nhk6wM9q13XqCt/HC5qQZXppm3771/z9exxpaDJ7wvj3PKgJrrMbYMNqtYptYrRjRkBoDbokmK1ctU9RnSJVE0t6wopugmrWs2iCi0PyszfyyBb2UgPV05QBmfrrbeuNr5JkybmFrU7dcaNG1dtulVXXdXcrueHBSioUZIhOF3z5s3NfWrLU6I43vMgH2pOpTvD6mZ9ie0nsXwyFzWz0o2T8k0iqBJUEkI3XtIzlIPPxA0WPSZOSQw9n1d5qEWL3AxCdOmFf7ya7k+gu8ADQGIfbZuDqj7Rzal0TxFkF8d7HpRCjy7T5Q0AEAU9uUEn3XQvhRtuSMbsupGoDmWOOCJ5Y1U9jjXTE1p0rx9dLoV03PMAeSF5kJuuQw7eEyFXUasAnfXXvQF05k+NR5R80CPaMk2vsuaayTue6wyigrG43ukcAKJE8gAAGh7dzFiPmNQja3VPoTI8qK7BInmAvJA8qJnO+uuKjvCzslXatk0+ZklP7FSiQE041aRKRTde2XTTZHJArQj0RAc9Xurtt41ZvNjNHAAQOZIHAIA4I3mAvJA8yN/PPxtz3nnJO7PqsoLQbS0AABWK5AEAIM5IHiAvJA8AAHFH8gAAEGckD5AXkgcAgLgjeQAAiDOSB8gLyQMAQNyRPAAAxBnJA+SF5AEAIO5IHgAA4ozkAfJC8gAAEHckDwAAcUbyAHkheQAAiDuSBwCAOCN5gLyQPAAAxB3JAwBAnJE8QF5IHgAA4o7kAQAgzkgeIC8kDwAAcUfyAAAQZyQPkBeSBwCAuCN5AACIM5IHyAvJAwBA3JE8AADEGckD5IXkAQAg7kgeAADijOQB8kLyAAAQdyQPAABxRvIAeSF5AACIO5IHAIA4I3mAvJA8AADEHckDAECckTxAXkgeAADijuQBACDOSB4gLyQPAABxR/IAABBnJA+QF5IHAIC4I3kAAIgzkgfIC8kDAEDckTwAAMQZyQPkheQBACDuSB4AAOKM5AHyQvIAABB3JA8AAHFG8gB5IXkAAIg7kgcAgDgjeVBLFixYYG688UZz4okn2i/fqVMnNyazyZMnm169evkFZXbaaSc7/Omnn04NC5dtt93WTuNNmzbNHHLIIWnTtGvXzgwdOtRNUTySBwCAuCN5AACIM5IHteD555+3X/iMM84wBx10kO3u2rWrG1udFpISB3vvvbcZOXKknX7fffe14/y8jjrqKNufzSOPPGKna9u2rXn88cftsLFjx5rdd9/dDu/Ro4cdViySBwCAuCN5AACIM5IHtWzYsGH2y3fp0sUNSffmm2/a8bvssovtHzJkiO33yYNsLQ/UouDtt9+208iAAQPscCUhgvr162eH9+7d2w0pTjB50K1bN3P//fenij7jxIkTzc8//2x/cAqFQqFQGlrRPk77Xb8v3Gyzzcz8+fPNvHnzMk5PoVAoFEpDKtrf6Ti+TZs2dj9I8qAW5Eoe+ESBzl688MILtsXAP/7xDztMlzkMHz7cTZluzJgxZscdd7TTqbWC1GXyIFxatmxpnnnmGTN79mx76QSFQqFQKA2tzJkzx7z22mupfV+HDh3MzJkzzYwZMzJOT6FQKBRKQyra302ZMsWst956dj9I8qAWfPLJJ/bL6/KBsC+++MJeTqCiyxtUtt9+ezv9GmusYa6++mozadIk895777l3JCnr06dPHzudTx74JIGSCpqvKNA5++yz7XDdC6EUweTBBRdc4IYCABAfXLYAAIgzLluoBa+//noquMhUNt10UzdldYMHD7bT+MsYPvzwQ9O+fftq82jSpIm5/vrr7TTeRx99VG3aVVZZxdx6661uiuJxzwMAQNyRPAAAxBnJA+SF5AEAIO5IHgAA4ozkAfJC8gAAEHckDwAAcUbyAHkheQAAiDuSBwCAOCN5gLyQPAAAxB3JAwBAnJE8QF5IHgAA4o7kAQAgzkgeIC8kDwAAcUfyAAAQZyQPkBeSBwCAuCN5AACIM5IHyAvJAwBA3JE8AADEGckD5IXkAQAg7kgeAADijOQB8kLyAAAQdyQPAABxRvIAeSF5AACIO5IHAIA4I3mAvJA8AADEHckDAECckTxAXkgeAADijuQBACDOSB4gLyQPAABxR/IAABBnJA+QF5IHAIC4I3kAAIgzkgfIC8kDAEDckTwAAMQZyQPkheQBACDuSB4AAOKM5AHyQvIAABB3JA8AAHFG8gB5IXkAAIg7kgcAgDgjeYC8kDwAAMQdyQMAQJyRPEBeSB4AAOKO5AEAIM5IHiAvJA8AAHFH8gAAEGckD5AXkgcAgLgjeQAAiDOSB8gLyQMAQNyRPAAAxBnJA+SF5AEAIO5IHgAA4ozkQS1ZuHChuffee80555yTV5AxZcoUc8IJJ/gFZXbeeWc3xtjldeKJJ6bGqbRr18689dZbboqkWbNmmaOPPjptuk033dS89957borikTwAAMQdyQMAQJyRPKgFL774ov3CRx55pOnWrZvt7tq1qxtb3YIFC2xyYK+99jJffvmlnX7fffe1455++mnbv/baa5vbb7/dDhs7dqzZaaed7PC9997bDuvXr5/tX2+99cx9991nh33xxRdm++23t8MPPvhgO6xYJA8AAHFH8gAAEGckD2rZsGHD7Jfv0qWLG5Ju+PDh/9/efQBLVlQNHBcjKhiqVl1ATJRZMWAEFQsUFQOiEgQjEsyACooiLIKCOYAoKqC1oggmVBBzzmiJKLiGwogKWpYBRKScr3699zz6zc6bffq92zO+Of+qU7vTc5fb3Ll9uvv0CeX7bbfdtnw+88wzy+cwHnzsYx8rn3faaafyOTj99NNL+y677FI+n3rqqeXzE5/4xPI5CKPCU5/61K7lv6M2Hmy33Xblv5uSkpKSkjJLcsQRR8zNhStXrhx5TUpKSkpKynKVd7/73YMb3OAGZR68xjWukcaDpWac8eCss84q39373vcefP7znx98/OMfHxx++OFzbU444ppJGw9OPvnkwaabblr64R677rprSkpKSkrKTMluu+02T0Zdk5KSkpKSslzF3Lf77rsPHvCABwxucYtbDC688MJut7g0zLzx4Dvf+U75n3/IQx7StVzFOeecM9h+++2LOM0nd7vb3cr1HtoxxxwzOPvss8tn4Qfnn39++Xd///vfB4cddlhp33HHHUvb6tWry2f/jTVr1pS2v/zlL4MXv/jFpT2MDEmSJEmSJEmSJEkybcyk8eBzn/tc/A+PlHvc4x7dlesSYQp1joRvf/vbc7ElIde97nUHq1at6q5Yy1e+8pXBrW9963nXbbTRRoOjjz66uyJJkiRJkiRJkiRJpo+Z9zxIkiRJkiRJkiRJkmQ8aTxIkiRJkiRJkiRJkmQsaTxIkiRJkiRJkiRJkmQsaTxIlpzf//73gx/84AeD8847b3DuueeWxJDD/Pa3vx18//vfH/zpT3/qWtrzm9/8pvQz5Ec/+tHgH//4R/dtG7baaqvBta51rRiAg09/+tPdN2v597//Pbj97W9frvnZz37WtfaH2rA//OEPBytWrCj9kZPDc4FndOMb33iurze/+c0HV155Zfmub6644orBL37xi5HyyU9+sjyfLbfccq7toosu6v5lv+jX29/+9sENb3jDwbWvfe3Bda5znSL+7hk9+tGPLuPgd7/7XfcvJsuf//znUiXm4osv7lracskllxSdMKwX/vCHP8wbi/rZkl//+tflvn4rMkoPeK/0+69//WvX0h/0o/t5v+IzPRBjj3jHvvSlL5XvW3HZZZcNbnazm83prI033nhwwQUXdN+uxbtuDGyyySaDSy+9tGtNAs/EO2b+87tOGovAeuyRP/7xj9237XjBC14wby486qijBpdffnn37Vr23nvvco0qVS2wlpHkOvr03ve+t7RbtzzwgQ+ca1cK7Vvf+lb5rm9CNwyLUmxyank+X/7yl+fa//Wvf3X/sn/oo9vd7nalD/VcePWrX31w29vetlQtW+qs7/8tdKtxOIn+LKQDot0YNNdYo7bEe+3+xP3N18NYO+i3sdECffIex7xLN+2xxx5zY494v97whjfMzZeteMQjHjFPZ73vfe8ra/aaBz3oQeWar3/9613L8iCNB8mSYoArFelduv71r19KhFhgqj5RLwSUpnSNAd+CJz/5ySWJpeoY2Guvvcr9bfo233zzwWabbVY+q4v6nve8Z51FSx8o90np3eQmNymThYnjvve97+Ca17xmmfyD29zmNqVvP/3pT7uW/qAQPCdikqCot9hii8GGG25Y+nDHO96xbOxMeBYFNgh/+9vfun/dHwwa7k822GCD8nt5biQMGp5btI2qnrLUeJe82+5rUWvTRBgu/EmPWuQywOjffvvt1/3LfnnHO95R9LhNHuXu/saiP/VVX7x32ix6lZ9twctf/vJy3+td73plzPndXv3qVw8OPvjg0ifvHH1hon3pS1/abOPp91LOSB9udKMblT7o2wknnDBnHPNnXHPGGWeUtj6x0Hav2JhHol2LNs9FRZ/73//+pc3zXOoazqPwPhvvfkN6wGdGH22eWxg3LSpdwwDZ6jecNswf73znO8v4814ba894xjPK2DTH0GHGgO/33HPP8hxb8Na3vrX0x3wMfaQDbPL0h4Th80UvelETQxkOPPDAopvMx/rkvdl///1LX1/72tfObQqe9rSnlb6pYd6CMBx84hOfKH167GMfW3S+Njr2i1/8YmmnGzxDSbH7pk7OvXLlysFNb3rTMucZb37L6Js2Y/NXv/pV9y/7wz3uete7lnvTS9Yz1g90K7EJZVy5wx3uUK6xzmlhwFZNzfopnpGxF3NhrGmINu+f6mj//Oc/u3/dD0q+u7/fynjzWz3lKU9ZRzfQ6w9/+MObGfq9xwcccEB5HqEPvOvPec5z5q3xXvKSl5Rr6IcW7LvvvuV+xx9/fPkca3ef9Zk897nPLXrLb3jKKaeU6/rmUY96VPkN6XBGMf1wWKQfH/zgB7urBnPz9Ne+9rWuZXmQxoNkSXnWs55VXiaL/1h4O8XTTlm/6lWvKpbwUFJvectbyjV989CHPrTcL4wHBr7PZ555ZvkMg3/bbbct7R/5yEe61v64053uVO41bPm2MVAS1PP6xje+MTfhtjIemDhMXPoBVl99MZGEldx1Nnk2WS2MBz/+8Y/L4sgmxbPYZpttyikowrAwrkpKH5gg3HfnnXfuWkYTFVrWd91SYbHtfuRxj3tc2dQxAlmERGlYGxkbFos+v2ULQjccd9xx5TMvlzA00gtBXPemN72pa+mXHXbYodzP4i2w2KUjvPdOG/X1kY98ZLnORqJvlP61MDH+EV4HtZHAxo6hQ3sLryQnQPSCBe6wx5F+WTvoj+pDdMgsGw/e//73l9/lYQ97WBlfPofu8l7FpvzUU08tbTalLXjlK19Z7sdgh9e97nXl80EHHVQ+B4ccckhpN0+3wAbF/U466aSuZS02cs985jPLe6fc9bOf/exyXSvjgapa7veFL3yhfDbnOEnUZhMYPPjBDy5tLTyBbEbCM9D864Q4uNWtblXaWxgMaox/7zdjxihP04BR3TqC8d/f++arX/1qeR7Eestnc6G577TTTivtd7/73Yv+9MxabNRDNzzhCU/oWgaDY489trQ95jGPmfMUCd3Qat1w5JFHlvs5CAljnb4w+jPiMfAxir7mNa8p19ERLaCbzMN0lXl4lA6gJ8Ib4eSTT+5a+8UBlfsNexTQEfYbntlnP/vZOQNkGg+SZAyx8H/Zy162jgXXJnOfffYpkwdl4DonIS0wWdhwWtRahLAQur9TDpMJ97AnPelJ5cTMJKicZ9/c7373K31g9T7//PO71qtwwh8GBvKTn/yk+6Y/uFyZSFnGbRLilMWf8fe6nVU/jAytsACId4hitsHSF4uAljBEOSlzUmAT7B0iXOD9aQPK88D75BpjowUWb+5/zDHHlPfZvW0WLARikWIh0Bo6gcHpiCOOKH1kYAyXP2NA+IdNlXGobRLGg2EXX6dmjAbeN331PGuDY584nQujnf7FczL+iM++++53v9skfMi6QKiS+97ylrccuUngKRGb5Fk2HnBf9Qzqhf8HPvCB0uZ9CmIj0cp4wJDPIMAwZVPwile8otyfMZG+MhfyBjJPOsXz9xa88IUvLGPLqd273vWurvUqvEfhrUiGjQx9YYEsPMFGIMacZxN/Nz7j764xN7XC+sCcpw8W8cLRwsj485//vLuqDTbewgbd2590Et1pLiQMBebp2jthlEv8UmOzay7kLcaw4d70vbWoPvp8n/vcp4mnaeAwwW/G5Z0OpQPsu/TFuLQ5Ng/GXO0AoAW18WD4efjMWGC+YchzHf3RCiFNYbgO70m6wucYf9rN4a1+y5122qnc17ivPYUDv20YGklL3dCCNB4kS4oB46TAQH7zm9/ctc7HNVyPDLpRC4W+MIHZpDv5sQjnymbzRynpi8Uuq2WLhXhgAnWaP7xpqbFIYBFv1S/WXc9Kv0gd26bdokB/JpmvIvjMZz5TJly/IeNQa0xUPEcYwbxT+uHP+LsJbvfdd2/mejiMRZJTIRt37zqjED3PJXgS2KxYfBPPiJeEd8rJo7bYLNu0hGdJ33ifnfjQWQuFJFgAW+x5fsN5SfomdMSwTOqdCh1ATyxEbESH4z9nBZt0OsHiipsvbAjkj/HsQHcxwuyyyy7N4odh0Ucn2AyY98yDTrCNR5+NQYv11oYfRmjv9ThjtOfqvR+Vk6QvvMf1uIt32jrZZwcTkxqLgfdHaFPoT/pqEvzyl78s7zUPiNDxMRfq2z3vec+yaZ8E1k+8KBn2GBK88+ZCxoOW7xM+9alPlft7JtYIwmrp1cifpN3z097q3TLeDz300GIk56E4CnMyTwB6ghdTa6xn6rEY0lJ/1oQOGGewoPf9hq3zMfRNGg+S5lgcEJ4J4xagrbEoMCAsFvqOe1ssTtYtMC0MpiXRkOdz5zvfufTrXve6V3PPg4UQ1qFPhGdJMh9GKC6uxLtkg0em7XTY2GNgbL2gG4cFgOdkATANOksfhFh513n/WLRPA94n3lL6ZVHeygD0v4jNjEUn/dki9Os/QX+mTTfwngr9XscUT5rddtttrl+tkiauDyee+iM/gpP3ZD70uHBHcyGPTmsa77t5Z1owD06bbqDPzYX61vKQbX3wXIox+KEPfahrnTy77rrrXL/OOeecrnV5kMaDpDmR9Ii8/vWv71onC8NB7WL04Q9/uPtmsoQbIpfOFjkPFoOTlnCllpRvWiY3yeTi92PUSBYmYp/J8573vK518kTIAmmVTHV92Kjzaol+ffSjH+2+mRz6FInTeN60dlNeCCdA4d2y6aabTp1hapqQSyPeKZ4v0wIvpejXpDyURiG0IvrVKufBYoh8B6R19ZNR2NRFkmWnyE7bk4URohq/H8+IVm7v4xBOG31qFdK0GIQaRr94J00LdUhTq0osi6HeU2TOgyT5L2DpDY8Drpvif1jpW7kbmRBsct1/IVdaSfn0S2yeU9pk+uBuK27S6eawOAFKrsIkKvEmERtL/N2zMvFb6HrfuUu2QnhOjMP6BD/0A93A7VXfGKla4SRFv2x2a/0Qpz/iifXLAsCkmSSLQRlZVXWGxyDPrac//eklS7d42VaeI8af99m7vlConJNqekHlgNaJ95KkL+h27/6wCL908CDRq7DWhdaHS4l7uLdxWLuzmxP107iTbI9+aJEMN2B4iudS6wft+uUAyzwogWh6tMw2aTxIlhR5DiyOxJUFEp+J4+pesiISb7V0PVSCJ+4tBEDCHkqQErdBmARi4etnoqqCWEVle+p2YtPcApNZVJwIETphI1efsBCxjK2s9E5WlYdzXy5gSjANi9Oo6JtYwVmF1wyPEM+BQcVGwGQfIjvw3nvvXb6X5+PEE0/s/mW/iAGPZHrEybSqJpIcDeuHVskSIc5TDGfc23umBJvEjuJO6361KNOIyJpO1E1XSURs5STh0qskndMUegIWlFGKqhaZqKfJrbU1Nt5RbpP+9D4Nj8E4xZPwq6420ieSqMZvZOx7r4w1mxa6vDbotUSOk0h8RuRh8Mze9ra3lXkm2kkrfQUl4CKpKzH3OGQQQsEbsO5XizKNgUz99b2HxVpCwtXIrzHLMAww4I16ToSO53HA9b0FDON1uc3IH8ADIjxNQ+RDaWHMgOoTsW4gcjIYa6effvpcssmQVmUawcga96UX6Ky60smkkNiSh2sdqiQptgTV9bPyWwuRWW6k8SBZUrhAe48iHCGqL9isxHtlg6yElfZWrslRXUGmdPHeZ511VjkF0kYobX0aLrvSJ06A3TtOnUxyxp+22vgSE82aNWu6lv6gEIQkWLDFQlJyH/eX9MjCFxaaEswRMXB940RaH+5yl7t0LaMRv+i61mUbp4ko1Thcfm2YN77xjeW6Vu6HEqm6X9RrdnIRpdBMxHGiH2XbWukGiRDdzykxnD7FIs6iLgxkam5raxG2EIYyJ1BqptuY1AYOuksWeLG6rYhSjfSDfBR+L32hK0IvQClL7frrBGsWiTJrdTm2UTCeLea6pSLKrEmI5vf0u9WhQmrhe69ig97KmBBjPsqsee+jvLK+Riz6fvvtV9q4dbcgKrGEyzHDQegGZabDQBbl2FpUadpkk03Kveo1AiJUgU7gKWWjZXPT0rNs2uDV45lsscUW8zZ5vAy0OxARx68MIH31/Oc/f54nQB9EhRWGATDEMlxoM/Yit5VNu7ZWIU0RyhgJXuWAiAMufQ1PwKOPPrq0tVo3xB7Cc2MMMxd6TtqI8sDCCluMvZoo1Rj3DQMVvRBeG9at1qzaR1Vk+F8mjQfJkkL5eo9sTCBmsv4cRK3W4fa+COMB6+owNu1Oa7faaqtyDWmR8yBOFyMmkYElNgjKOMZmKowHLXIeCNdwomKTEBZvpcVYU8VWK08D3hpOZJwkxylkn5x33nnlGejXvvvu27XOx2ZUkjbX2XzNKmEUcFpwwgknlDa/ZQhsWpyiuS5qvvdNjPmowsJTJBbCTtejikFsEBaq1rLUeL/dL7wKLI7qTNz0A2Izo9RW34TxwOJjmG9+85vlWdVeHC10QxgPnBDDxtKpnX7UBkShaHSIhQXPhFmEV53fxXukBFo9/mIMWkwKX3CdUq8tCOPBqDwnjPoMaLUxwXzegvCECqPFcccdVzyTtDlF574Nul9bq5wHsUnhvQUbq9ANTqtj3IURtEXOg80337zci8dPXfEojAdxGBHXzXLOA4dBqhkwcNqghyGYV4tnE7mR6FSfrbv69kQN40GUYHTvOMjiDRRed6ecckppa2VY5P3kfuFVYJ7jpauNpzCDKKK8a6t1QxgPVKIYxvgT3lHnFmhVwS2MB3HguP3225fPtSEdW2+9dWnPnAdJMgbWyO5lmie1kYCbsqRae+65Z7OYytgghAJcCIsEFv1W7n61+xrh2s0lq94YEIqz1Sme0xQeBfX9ZbCNOuUhNgg2XAvFzvaBZ+NEuu5HLdzuWnqPTCs2AgwETgxGPSeiZGmrcJjAwqTuwz777FM8W+L0P0RytJblxh7/+MfPu7+kcbyUbBCG253I9I3FmvvxOhiHhYox0WKT7kSTAbF+HoTBM06GrR0ijIGHxiyHLnhe9GMYzUaJZ+WUuBXCA9xXn8YhzlpCx/W9f0vJ8HOiG7zb9caA2Ey01A1hGAgRzqRfTrPr9qOOOqqZJxDD03CoF2EsdpJu3MUaorWOnzZ4ScVpeS0M1jaeYJzSJtSjRRirjXndF+Fg5sEDDzxwXrsT9ZalLZ2a1/dn4NCv2qBIJHFsYbBGJFjXt3HwGDQuW+mGMAoMi3DogEeVdTKvjuW2r07jQZJMEAsOiyRSs2rVqrl2py0tk8ctBCXuhEifWlmdF4tnpF8WCUmStEd+jb322qv7lCT/GQzUMefZCASM1tFOz0/DCZ55Wyx29KmF910NjxAG1rj/MLyChHv4rmVoU5Ikg2Jg5DES3sPLkTQeJEuKiX6PPfYopVMkrfN3HgaSAIpN8o5tueWW5bPFZlh+pwWn2mqztjgN2myzzcrz4EoaZbvkXYjTPbHr2sUuintrUZlC2IJ7E8qBm1+dwFFMKi+I+Gzx0qIev5CE4dNp7ojR5pTFs6K0PT8nxLOME2mu0MQYFIfOq0alinh+3r9WCQCxevXqcsJ/9tlndy1r9UW414ZIuNrSe4SLdDUJFldl4QLcH4c9gJzCTBORI0Wuj76xCamfxWJkVnMeqOltc8ngSn/GPGhedLrp2dDr2ngHSQw4TfC6MVZHhfn1QZwu+pMeFyfMlTvcpq0ltPNC4FreKn7Yvdzf8wDXbqE72hjQ9SnmcfHzF1xwQbmuT+SyieSSsUbwd3NhuOXzBsywhbXIdeA51OJwpsacpN3atG/PA/0xtuqT9O9973vrJJ7lRXnSSSd1V/SPE/PIw0WEDQljqsOrQiIvwjRBx+pbq3wooccXK9O21/n/ksaDZEmJhInEJlxsogRpFkfh5rPzzjuXDajYrlZukRRKnJqz2A+L7/xJYYvv5/7UN6Go60yssbmLCUx8bMQytnAToxAkRLNAipI93JIjzjmQVEjOA/GfLU5dRiVMPOyww0qbXBUBFz9ts5wwMTKqW2hbfMhT4TOxwI33TVJTbVzrWhAJEyOmM3Ib6F/E6fr9YlJulQ8lEiGGYcAkH/HWnk2UbQ1DlXCQvon7L0YYy1Qj6ZvaeLDhhhsODj/88O6btZsV+sD6IVlrFItnJfRFqJ450LxnI6zdRuXYY48t73kroxT3bHOdE+nhOZD4TlhAxGC38jCLhImRTBVOzrXVOUYi83qrnAeRMDFckSMx4rArecQ7t8h5EFU8hr0R6ySdjAjc8n2eZeOBja9nQJ9KQAjrFetA7dzJoTy3z9aorXIecP2vP1v7RcUOSS5jM2y93IJImHjIIYeUzwzS8b57v8MwFiEgQixaEPpysaJEdQtq44Hfqk60Gfog8iUtR9J4kCwplLXT+xhYLPdOYRDJFFslQquJ5CYWR04aZddltQ/xmQeAHAStjAdODExqTp8YXYZLvER7nDLI9Nw3FILTVjkPbPaIv2vzXWCzEHkRWlRbYGRyr9p44L3S5oQlsInSJhnlrBJJ0erJPfJE1InSWi8CIqY5Eh9FhulhfRAJktYX47hUxEQfHhHGZZzaWbhFXpYwMrRImKgPTqaVihuX8T7irlsYD2rqvCO8fMRZMzK2MiZOO3IGmGdiA8DrLrLjywWhLbKtt4S7vXsrx2ujPjwPEuMxkoO2OmGUwI7HD+MmHVWXKiU2ddojkWjokL6JqlA2eu4fuUgigWMQOqTF6aKKGO4lDn1UOKPNk+8J77xZNh7YjHsOMuEPY5/D08VhSRiGGdz7Nh6EkcfhGqw1fR5OjBhGhVYJE3ltul8YD3hIRAJq3oBhGIt1QyvDIi9KuR8kPR/nYReHEa2MBwGvTnO1e9MX8v9EgvYWxsRJkcaDpDcYElgzWcAp76hmYOE5CWLxP1ziqCayK7eotgBhADZ7IQE3Sc9JmwVdK5xYOA2r+0Qkcgx4I6hR7rqW2ESZuCx4RyG0Qb9kKZ5lhNxI8mVCE0cMGZ15akRZIYtfLsFORVvVJw/Pg2GJsq6wsDIhMfa1TNYWk30I93IeEuH1E2KxGV4SfSNswtirM6rX8EqSIM014R0xCSL7NmlVuvV/CZs3OnzHHXcsLu6xUYls662JpIkM6QsRXl2tqi3A6X495zDAQP6Dek5quRl2Wl33KSQShIJHiXVOS6MZjzL9WEg3gLfLcF9nDSf4DLDeZfPdqDAqHlVytbhG9YUI/eiLMAoMS+1hwLOF9yQvE5vTVoQ3YohEjoygYUwMEWJhTdEK1YW8y+eee27Xsi7Kr7um9uRtjfWWBInxnJZbqEJNGg+SJnDL5IbolEqN3WRhYkCOKtM2KS6++OI5hVh7IEyaUd4HSZIk08iaNWvKHOh0Lwx7ycJEnXkbmGkiwjqivOykYVh3gq5PLfKfJEky26TxIJkI4iu9bwudIk8K7pz61crzYBQR09giTGGxsM6LcxZCMU0nGWLKPCvxw0kya0RCx2naMDi50ycyqwkTFwsvOM+J58s0ceSRR5Z+tfQ8GEXEpreq3b5YhFfo13BN90nBeBChHq1DmJJkGogQMR4304S1qX4JzVpOpPEgWVLG1bQeJa2yTIer6GKE2xEXqEkhLnX//fefivKMgU2AGHXeIy2qKywWoQqeFVfcJFkuTGPCxEsuuWTk/RcSLvqXXnpp969ni4VckxcSScFaEPHKi5VDDz20+5eTQRgT/S6h3TQhjEK/WtW6Xx9CmMSs61OWZkyWE9OaMDHyQSxWpqHE7FKSxoNkSZGJXNJBpQUvvPDCrnVdIrlJZF7vGwmWVq5cWWLbLIIXIhIrSmqVJEkyCVQy4FWwPv3YMmEiA6KTYO7RNscLIeEYA+yKFStm1nggNleSLwleh5Pr1YTngdJtLXBSLvmZxHDj4ocj8zqDcZIkyaSQw0qiVHsG4bMLoYIMndXKeKBKDgO5uXpcks3wZk7jQZKsB6cFMsmOS/Si1JJrIoFbCyT9c8+FEr2w3ksYozb+ci6xkiTJ9MPLR+LGiy66qGuZD31lc+eacYuqpSQMCBZyKiyMwqJCYkmJyvrOXD7NSFxqvhmXINiC0jWtqgdAnL57rl69umtZFxVFXBPl7ZIkSSaF/YJ5bpzrv3Lsrmm5SVcW2z0ldV0IIWCumRYvpaUijQdJEyJ2cdpyHISnQSavSpIkSfokyujxzJsmomIGt/ckSZIkGUcaD5ImRJhCXZZtGthhhx1KvyaZIDFJkiRZ/jjtN9/UZdmmgUiQeMABB3QtSZIkSTKaNB4kTTj++ONLhuIzzjija5kOVq1aNdhuu+2mLiFTkiRJsrzgdmselLhwmjjttNNKv0488cSuJUmSJElGk8aDJEmSJEmSJEmSJEnGksaDJEmSJEmSJEmSJEnGksaDJEmSJEmSJEmSJEnGksaDJEmSJEmSJEmSJEnGksaDJEmSJEmSJEmSJEnGso7xwIfLLrus+zpJkiRJkiRJkiRJklnn8ssvH6xYsWLOeHDFBhtsMNhoo40GG2+8cUpKSkpKSkpKSkpKSkpKSkqxE7AXXO1qV7vy/wDwMVq0wK8swgAAAABJRU5ErkJggg==;" vertex="1" parent="1">
          <mxGeometry x="-106" y="30" width="1039" height="527" as="geometry" />
        </mxCell>
        <mxCell id="g7Lv0-j5SWcme3CbAV27-85" value="X:&lt;div&gt;1526&lt;div&gt;1495&lt;/div&gt;&lt;div&gt;1501&lt;/div&gt;&lt;div&gt;1504&lt;/div&gt;&lt;div&gt;1509&lt;/div&gt;&lt;div&gt;1522&lt;/div&gt;&lt;div&gt;1514&lt;/div&gt;&lt;div&gt;1511&lt;/div&gt;&lt;div&gt;1508&lt;/div&gt;&lt;div&gt;1500&lt;/div&gt;&lt;div&gt;1532&lt;/div&gt;&lt;div&gt;Y:&lt;/div&gt;&lt;div&gt;1514&lt;/div&gt;&lt;div&gt;1501&lt;/div&gt;&lt;div&gt;1507&lt;/div&gt;&lt;div&gt;1506&lt;/div&gt;&lt;div&gt;1508&lt;/div&gt;&lt;div&gt;1522&lt;/div&gt;&lt;div&gt;1512&lt;/div&gt;&lt;div&gt;1512&lt;/div&gt;&lt;div&gt;1506&lt;/div&gt;&lt;div&gt;1499&lt;/div&gt;&lt;div&gt;1524&lt;/div&gt;&lt;/div&gt;" style="text;html=1;align=center;verticalAlign=middle;whiteSpace=wrap;rounded=0;" vertex="1" parent="1">
          <mxGeometry x="620" y="570" width="80" height="360" as="geometry" />
        </mxCell>
      </root>
    </mxGraphModel>
  </diagram>
</mxfile>
